<?xml version="1.0" standalone="no"?>
<!DOCTYPE svg PUBLIC "-//W3C//DTD SVG 20010904//EN"
 "http://www.w3.org/TR/2001/REC-SVG-20010904/DTD/svg10.dtd">
<svg version="1.0" xmlns="http://www.w3.org/2000/svg"
 width="600.000000pt" height="600.000000pt" viewBox="0 0 600.000000 600.000000"
 preserveAspectRatio="xMidYMid meet">
<metadata>
Created by potrace 1.11, written by Peter Selinger 2001-2013
</metadata>
<g transform="translate(0.000000,600.000000) scale(0.100000,-0.100000)"
fill="#000000" stroke="none">
<path d="M2863 4548 c5 -20 4 -21 -6 -7 -11 15 -17 14 -62 -12 -28 -16 -49
-34 -47 -40 1 -6 -2 -8 -8 -4 -11 7 -42 -7 -41 -18 2 -18 0 -21 -7 -9 -6 9
-13 7 -30 -8 -11 -11 -27 -20 -34 -20 -20 -1 -49 -26 -40 -35 4 -5 -1 -5 -10
-2 -12 4 -21 -1 -29 -15 -10 -18 -9 -20 5 -15 8 3 18 2 21 -4 4 -5 3 -9 -2 -8
-21 4 -34 -2 -27 -13 4 -6 3 -8 -4 -4 -6 3 -9 15 -7 26 4 23 -5 26 -23 8 -7
-7 -38 -26 -69 -43 -31 -17 -58 -36 -60 -42 -2 -6 6 -21 19 -34 13 -12 16 -18
8 -14 -10 6 -9 1 4 -13 l18 -21 50 27 c27 15 62 34 78 42 16 8 31 25 35 38 3
12 10 22 16 22 6 0 7 5 3 12 -5 7 -3 8 5 4 9 -6 8 -13 -5 -27 -22 -25 -10 -24
32 2 19 11 32 25 29 29 -3 5 0 12 6 16 8 4 9 3 5 -4 -4 -7 -2 -12 4 -12 12 0
93 51 98 63 2 4 8 5 13 1 5 -3 9 0 9 6 0 6 5 8 10 5 6 -3 10 -1 10 4 0 6 -5
11 -12 11 -6 0 -8 3 -5 6 4 4 13 1 22 -6 10 -8 15 -9 15 -1 0 6 7 11 16 11 9
0 12 5 8 13 -5 6 7 -3 26 -21 21 -22 40 -32 52 -29 10 3 16 2 13 -3 -6 -10 20
-32 28 -23 4 3 7 2 7 -4 0 -6 8 -13 18 -17 21 -7 76 -39 97 -56 8 -7 15 -9 15
-4 0 4 10 -2 23 -13 31 -28 48 -37 45 -22 -2 6 4 14 12 16 12 4 12 3 2 -5 -11
-7 -10 -12 3 -26 19 -19 29 -21 19 -3 -4 6 4 0 19 -15 14 -16 30 -28 34 -28 5
0 20 19 34 43 l26 43 -49 29 c-27 17 -52 28 -55 27 -3 -2 -10 2 -14 10 -7 10
-9 10 -9 -2 -1 -8 -5 -5 -11 8 -5 13 -13 20 -19 17 -5 -3 -10 0 -10 7 0 11 -2
10 -9 0 -6 -11 -9 -10 -13 5 -3 10 -32 31 -64 47 -33 16 -67 36 -76 44 -16 14
-18 13 -18 -6 0 -25 -16 -37 -26 -21 -4 8 -3 9 4 5 8 -5 12 1 12 16 0 31 -53
63 -71 42 -6 -8 -16 -14 -22 -14 -6 0 -3 6 8 13 17 13 13 43 -5 32 -5 -3 -11
-1 -15 5 -12 19 -27 10 -22 -12z m-33 -23 c0 -8 -4 -15 -10 -15 -5 0 -7 7 -4
15 4 8 8 15 10 15 2 0 4 -7 4 -15z m56 -33 c-10 -2 -22 0 -28 6 -6 6 0 7 19 4
21 -5 23 -7 9 -10z m80 3 c-1 -8 -6 -18 -11 -22 -4 -4 -5 -2 -1 5 4 7 2 12 -6
12 -9 0 -9 3 2 10 19 12 19 13 16 -5z m-185 -9 c5 3 9 0 9 -6 0 -15 -23 -7
-26 8 -1 7 0 8 3 2 2 -5 9 -8 14 -4z m59 0 c-1 -5 4 -13 12 -18 11 -8 11 -9 0
-6 -8 2 -13 7 -12 12 1 5 -4 13 -12 18 -11 8 -11 9 0 6 8 -2 13 -7 12 -12z
m-100 -37 c-7 -11 -14 -18 -17 -15 -3 3 -12 -2 -20 -12 -13 -15 -13 -15 -3 6
6 12 15 20 19 17 5 -3 11 2 15 10 3 8 8 15 11 15 3 0 1 -9 -5 -21z m32 4 c-6
-2 -9 -10 -6 -15 4 -7 2 -8 -5 -4 -13 9 -5 26 12 25 9 0 8 -2 -1 -6z m274 -25
c-9 -12 -16 -19 -16 -15 0 11 24 47 28 42 2 -2 -3 -14 -12 -27z m-56 5 c0 -3
-6 -3 -12 0 -7 2 -22 0 -33 -5 -19 -9 -19 -8 -2 6 17 13 47 12 47 -1z m-305
-3 c-3 -5 -12 -10 -18 -10 -7 0 -6 4 3 10 19 12 23 12 15 0z m398 -5 c-3 -9
-8 -14 -10 -11 -3 3 -2 9 2 15 9 16 15 13 8 -4z m-338 -5 c-3 -5 -1 -10 6 -10
7 0 10 -3 6 -6 -9 -9 -28 6 -22 17 4 5 8 9 11 9 3 0 2 -4 -1 -10z m365 0 c0
-5 -5 -10 -11 -10 -5 0 -7 5 -4 10 3 6 8 10 11 10 2 0 4 -4 4 -10z m-72 -25
c2 -1 -5 -6 -15 -9 -9 -4 -14 -4 -10 0 4 4 -1 13 -11 21 -15 12 -14 13 8 2 14
-6 26 -13 28 -14z m-363 5 c3 -5 1 -10 -5 -10 -6 0 -8 -6 -4 -12 4 -7 3 -9 -1
-5 -12 10 -15 37 -5 37 5 0 12 -4 15 -10z m42 -12 c-3 -8 -6 -5 -6 6 -1 11 2
17 5 13 3 -3 4 -12 1 -19z m410 -3 c0 -8 -4 -15 -9 -15 -10 0 -11 14 -1 23 9
10 10 9 10 -8z m-479 -27 c3 2 7 -1 9 -7 1 -7 0 -8 -4 -1 -2 5 -9 8 -13 5 -5
-3 -14 5 -20 17 -11 22 -11 22 5 3 9 -11 19 -19 23 -17z m-43 13 c3 -5 0 -13
-6 -17 -7 -4 -9 -3 -5 4 3 5 0 13 -6 15 -9 4 -10 6 -1 6 6 1 14 -3 18 -8z
m495 -11 c0 -4 -7 -7 -15 -6 -23 3 -26 12 -5 13 11 1 20 -2 20 -7z m94 -2 c-3
-4 -9 -8 -15 -8 -5 0 -9 4 -9 8 0 5 7 9 15 9 8 0 12 -4 9 -9z m-670 -24 c3 -8
2 -12 -4 -9 -6 3 -10 10 -10 16 0 14 7 11 14 -7z m606 6 c0 -5 -4 -10 -10 -10
-5 0 -10 5 -10 10 0 6 5 10 10 10 6 0 10 -4 10 -10z m-569 -23 c-10 -9 -11 -8
-5 6 3 10 9 15 12 12 3 -3 0 -11 -7 -18z m605 -3 c2 -23 1 -24 -11 -7 -10 13
-10 20 -2 25 7 4 12 8 12 8 0 0 1 -11 1 -26z m42 14 c-2 -6 -10 -13 -16 -14
-7 -1 -8 0 -2 3 5 2 8 9 4 14 -3 5 0 9 6 9 7 0 10 -5 8 -12z m57 2 c-3 -5 -1
-10 6 -10 7 0 10 -2 7 -5 -3 -3 -13 -2 -22 1 -14 5 -15 9 -4 15 17 11 20 11
13 -1z m-765 -15 c0 -8 -2 -15 -4 -15 -2 0 -6 7 -10 15 -3 8 -1 15 4 15 6 0
10 -7 10 -15z m-50 -15 c0 -5 -8 -10 -17 -10 -15 0 -16 2 -3 10 19 12 20 12
20 0z m72 -36 c-6 -12 -9 -7 -9 16 0 23 3 28 9 16 5 -9 5 -23 0 -32z m33 28
c-3 -3 -11 0 -18 7 -9 10 -8 11 6 5 10 -3 15 -9 12 -12z m691 3 c-3 -23 -12
-26 -13 -5 -1 11 2 20 7 20 4 0 7 -7 6 -15z m-760 -15 c5 1 10 -4 12 -12 3
-11 2 -11 -6 0 -5 8 -13 13 -18 12 -5 -1 -10 4 -12 12 -3 11 -2 11 6 0 5 -8
13 -13 18 -12z m837 -5 c-7 -21 -12 -19 -10 4 0 11 5 18 9 15 4 -3 5 -11 1
-19z m-916 8 c-4 -3 1 -12 11 -20 15 -13 15 -13 -6 -3 -19 9 -23 30 -5 30 4 0
3 -3 0 -7z m876 -13 c-20 -23 -20 -23 -29 -8 -4 6 -3 8 3 5 6 -4 13 0 17 8 3
8 10 15 16 15 5 0 2 -9 -7 -20z m-835 -15 c-3 -3 -9 2 -12 12 -6 14 -5 15 5 6
7 -7 10 -15 7 -18z m14 -27 c-8 -8 -9 -4 -5 13 4 13 8 18 11 10 2 -7 -1 -18
-6 -23z"/>
<path d="M2853 4333 c-7 -2 -13 -12 -13 -21 0 -11 -3 -13 -8 -5 -5 8 -11 8
-24 -1 -10 -7 -15 -16 -11 -20 4 -4 0 -4 -10 0 -10 3 -17 1 -17 -6 0 -6 -4 -9
-9 -6 -5 3 -12 -1 -15 -10 -3 -8 -10 -12 -16 -9 -5 3 -10 1 -10 -5 0 -6 -5 -8
-12 -4 -7 5 -8 3 -4 -5 5 -8 3 -11 -5 -9 -13 2 -129 -58 -129 -67 0 -18 25
-53 34 -47 6 3 16 7 22 8 15 2 98 55 106 68 4 6 8 9 9 6 5 -29 9 -60 10 -85 0
-22 3 -26 9 -15 6 9 10 10 10 3 0 -6 -5 -15 -10 -18 -6 -4 -7 -13 -1 -23 4 -9
6 -22 4 -29 -2 -6 1 -15 8 -19 8 -5 9 -3 4 6 -6 9 -4 11 4 5 10 -6 10 -10 -1
-22 -13 -12 -21 -11 -63 7 -122 52 -352 62 -487 20 -73 -22 -139 -73 -159
-122 -7 -18 -18 -36 -25 -41 -16 -9 -16 -189 0 -199 8 -5 7 -8 -1 -8 -7 0 -13
-7 -13 -15 0 -9 6 -12 18 -9 16 5 16 5 0 -5 -12 -8 -16 -26 -17 -73 0 -34 5
-65 10 -69 19 -11 60 3 58 20 -1 9 -1 29 0 45 l1 30 28 -26 c38 -36 105 -72
190 -102 100 -36 132 -54 132 -74 0 -28 -21 -42 -61 -42 -41 0 -69 21 -69 51
0 18 -8 19 -135 19 l-135 0 -2 -97 c0 -54 -1 -104 -1 -110 1 -7 -3 -10 -8 -7
-5 3 -9 -6 -9 -20 0 -14 6 -26 13 -26 9 0 9 -2 1 -8 -17 -10 -17 -132 -1 -132
7 0 8 -3 2 -8 -14 -10 -19 -46 -6 -37 6 3 11 1 11 -4 0 -6 -4 -11 -8 -11 -5 0
-9 -13 -10 -30 -1 -25 7 -34 48 -59 26 -16 51 -27 54 -24 3 4 6 2 6 -4 0 -6 8
-9 19 -6 10 3 22 0 25 -6 5 -7 1 -9 -11 -5 -15 6 -15 4 2 -9 11 -8 23 -13 27
-11 5 3 8 0 8 -6 0 -6 5 -8 10 -5 6 3 10 1 10 -4 0 -19 22 -12 27 9 6 22 18
26 29 8 4 -6 3 -8 -2 -5 -6 3 -15 -3 -22 -13 -10 -16 -8 -21 10 -31 18 -10 24
-8 39 12 10 13 19 27 19 30 0 7 -71 42 -89 43 -8 1 -15 7 -17 14 -1 7 0 8 3 2
3 -6 10 -4 19 4 19 20 18 26 -6 21 -11 -2 -18 0 -15 5 3 5 16 7 29 4 18 -3 32
5 54 30 17 19 33 32 36 29 3 -4 6 1 6 10 0 9 3 16 8 14 12 -4 63 41 53 47 -5
3 -12 0 -14 -6 -4 -10 -6 -10 -6 0 -1 7 -6 10 -13 6 -6 -4 -8 -3 -4 4 3 6 18
8 33 6 28 -5 77 31 66 49 -3 6 -1 7 5 3 7 -4 21 2 32 12 21 19 184 67 174 51
-3 -5 1 -9 8 -9 7 0 24 -9 38 -20 14 -11 33 -20 43 -20 9 0 17 -5 17 -11 0 -5
5 -7 10 -4 6 3 10 2 10 -4 0 -5 10 -13 22 -17 19 -6 20 -8 6 -18 -15 -11 -29
-90 -31 -183 -1 -23 -5 -39 -9 -37 -7 5 -10 -25 -11 -103 0 -13 -3 -23 -7 -23
-6 0 -9 -23 -12 -102 -1 -21 -4 -38 -7 -38 -2 0 -28 13 -58 30 -49 28 -87 42
-53 20 8 -5 10 -10 4 -10 -7 0 -19 11 -28 24 -22 34 -54 43 -71 19 -21 -26
-18 -38 10 -51 34 -16 34 -16 29 13 -2 14 0 25 5 25 5 0 7 -14 6 -31 -2 -24 2
-33 16 -36 11 -3 19 -10 19 -16 0 -6 3 -7 7 -4 3 4 22 -5 41 -20 27 -20 34
-22 29 -9 -4 10 -3 15 3 11 6 -3 10 -14 10 -23 0 -15 2 -15 10 -2 8 13 10 12
10 -2 0 -11 8 -18 21 -18 11 0 18 -4 15 -8 -3 -5 12 -17 32 -27 45 -23 72 -28
72 -15 0 6 3 9 8 8 14 -5 91 45 85 55 -4 6 -1 7 6 3 7 -5 19 0 27 10 9 11 13
14 10 7 -4 -6 14 0 39 13 25 14 45 30 45 35 0 6 4 8 9 4 14 -8 41 23 35 40 -4
8 -10 15 -16 15 -5 0 -6 5 -3 10 11 17 -14 11 -34 -9 -11 -11 -22 -17 -25 -13
-3 3 -6 0 -6 -7 0 -7 -4 -9 -10 -6 -5 3 -10 1 -10 -5 0 -6 -4 -9 -9 -6 -4 3
-16 -3 -26 -14 -10 -11 -23 -20 -29 -20 -6 0 -4 5 4 10 13 9 13 11 0 20 -11 7
-12 10 -2 10 10 0 12 9 7 31 -4 17 -8 38 -9 45 -1 7 -5 16 -8 19 -3 3 -3 17 0
30 l4 25 204 0 c125 0 205 -4 209 -10 4 -7 12 -7 25 0 25 13 187 13 195 0 4
-6 3 -10 -2 -8 -20 5 -83 -32 -83 -49 0 -15 -2 -16 -10 -3 -9 14 -11 13 -14
-9 0 -5 -5 -13 -10 -18 -5 -5 -6 -3 -2 5 11 18 -8 15 -48 -9 -20 -12 -36 -28
-36 -36 0 -8 5 -11 13 -7 6 4 9 3 4 -1 -4 -5 -18 -10 -30 -11 -12 -2 -16 0 -9
2 6 3 12 10 12 15 0 6 -8 5 -20 -1 -20 -11 -20 -11 0 -50 22 -42 42 -60 48
-42 2 7 9 12 16 12 7 0 18 6 25 12 6 7 17 13 24 13 7 1 11 7 9 14 -1 7 2 10 7
7 12 -8 93 39 84 48 -5 4 -1 7 7 5 20 -3 46 9 98 43 23 16 40 33 37 38 -3 5
-1 12 5 15 6 4 9 3 8 -2 -5 -14 16 -11 55 9 21 10 36 24 34 31 -3 7 -10 11
-16 9 -6 -1 -11 2 -11 8 0 15 11 12 33 -7 19 -17 20 -17 14 0 -4 9 -2 17 3 17
6 0 10 -5 10 -10 0 -6 8 -5 20 2 18 11 20 22 17 93 -2 76 -3 80 -24 77 -12 -2
-24 1 -26 6 -3 4 7 7 23 6 l29 -2 -2 117 c-2 113 -3 116 -24 113 -12 -2 -24 1
-26 6 -3 4 7 7 23 6 29 -2 29 -2 27 55 l-2 56 -42 1 c-35 1 -41 -2 -40 -17 1
-14 7 -18 22 -14 18 5 18 5 2 -5 -17 -11 -41 -5 -33 9 3 4 0 13 -5 21 -6 11
-9 4 -7 -22 1 -21 7 -38 13 -38 5 0 4 -4 -3 -8 -14 -10 -13 -103 3 -114 6 -5
6 -8 -2 -8 -16 0 -14 -110 2 -110 5 0 5 -4 -2 -8 -8 -5 -11 -31 -10 -79 l3
-71 -58 -31 -58 -32 0 55 c0 30 4 57 9 61 13 8 10 157 -3 174 -8 11 -8 13 0 8
8 -5 12 10 12 48 0 30 -4 55 -9 55 -5 0 -9 5 -9 11 0 5 5 7 10 4 6 -3 10 -1
10 5 0 7 -13 10 -32 8 -29 -3 -33 -7 -33 -33 l-1 -30 -74 -1 c-41 0 -77 2 -80
6 -10 13 -94 49 -102 44 -4 -3 -9 1 -10 8 -2 21 -5 51 -7 79 -1 24 -4 26 -48
25 l-48 -1 -3 91 -3 91 63 -1 63 -1 3 -82 3 -83 144 0 145 0 0 79 c0 44 4 82
8 85 13 8 12 69 -1 85 -7 8 -7 12 -1 8 15 -9 16 134 1 152 -9 12 -9 13 1 7 16
-10 13 25 -3 36 -6 5 -5 8 3 8 8 0 12 16 12 45 0 49 -14 62 -62 60 -16 0 -28
3 -28 8 0 5 9 7 20 4 11 -3 20 -3 20 -1 0 9 -86 48 -100 45 -8 -2 -12 0 -8 5
8 7 -9 20 -62 46 -14 6 -37 20 -52 31 -32 21 -57 14 -37 -10 11 -12 10 -14 -6
-11 -10 1 -20 -3 -23 -11 -3 -10 0 -12 14 -7 10 4 15 4 11 0 -10 -10 70 -57
83 -49 6 3 10 0 10 -8 0 -10 8 -14 23 -11 12 2 16 2 9 -2 -18 -8 -4 -24 16
-18 14 5 14 4 2 -4 -10 -8 -18 -8 -28 0 -10 9 -14 6 -19 -10 -3 -12 -8 -20
-12 -17 -4 2 -27 -14 -51 -35 -35 -31 -41 -40 -28 -45 22 -9 30 -33 15 -41 -7
-4 -9 -4 -5 0 7 8 -21 46 -34 46 -5 0 -8 -9 -8 -19 0 -11 -4 -23 -10 -26 -6
-4 -7 1 -4 12 4 14 1 12 -15 -6 -12 -13 -21 -20 -21 -17 0 4 -10 -2 -22 -14
-20 -19 -34 -20 -206 -20 l-183 0 3 43 c2 31 -1 41 -10 39 -8 -1 -11 2 -7 8 3
6 11 8 16 5 5 -4 9 0 10 7 0 7 2 24 5 38 2 14 6 36 8 50 2 14 7 38 11 54 5 19
4 27 -3 22 -13 -8 -9 23 5 32 5 4 9 20 9 35 -1 16 2 31 6 33 4 3 8 16 8 30 0
22 -2 24 -22 14 -22 -11 -22 -10 -4 4 11 9 24 16 29 16 4 0 6 4 2 10 -3 5 -13
7 -23 4 -14 -5 -14 -4 -2 4 8 6 18 8 24 5 5 -4 7 0 4 9 -4 8 -2 21 2 29 7 11
23 6 79 -24 73 -40 96 -41 86 -4 -5 16 -4 18 3 8 6 -8 12 -9 16 -3 7 11 -58
55 -80 55 -7 0 -16 7 -19 16 -6 14 -8 13 -22 -4 l-15 -20 6 20 c5 17 -8 28
-78 68 -46 26 -85 47 -87 46 -2 0 -10 -3 -16 -6z m33 -65 c-9 -12 -16 -19 -16
-15 0 11 24 47 28 42 2 -2 -3 -14 -12 -27z m-56 12 c0 -5 -4 -10 -10 -10 -5 0
-10 5 -10 10 0 6 5 10 10 10 6 0 10 -4 10 -10z m30 0 c0 -5 -2 -10 -4 -10 -3
0 -8 5 -11 10 -3 6 -1 10 4 10 6 0 11 -4 11 -10z m73 -8 c-10 -10 -20 -17 -22
-16 -6 5 20 34 30 34 5 0 1 -8 -8 -18z m27 -6 c0 -2 -7 -7 -16 -10 -8 -3 -12
-2 -9 4 6 10 25 14 25 6z m30 0 c0 -3 -4 -8 -10 -11 -5 -3 -10 -1 -10 4 0 6 5
11 10 11 6 0 10 -2 10 -4z m-223 -21 c0 -8 -4 -12 -9 -9 -4 3 -8 0 -8 -7 0 -7
-3 -9 -6 -6 -4 4 -1 13 6 22 15 19 17 19 17 0z m68 -4 c-3 -6 -11 -11 -16 -11
-5 0 -4 6 3 14 14 16 24 13 13 -3z m74 -9 c-5 -2 -6 -9 -2 -15 3 -7 2 -9 -2
-4 -5 4 -10 17 -12 28 -2 16 -1 18 11 7 8 -7 10 -15 5 -16z m48 -4 c-3 -8 -6
-5 -6 6 -1 11 2 17 5 13 3 -3 4 -12 1 -19z m58 12 c3 -6 -1 -7 -9 -4 -18 7
-21 14 -7 14 6 0 13 -4 16 -10z m-299 -38 c-18 -16 -18 -16 -6 6 6 13 14 21
18 18 3 -4 -2 -14 -12 -24z m104 12 c0 -2 -7 -4 -15 -4 -8 0 -15 4 -15 10 0 5
7 7 15 4 8 -4 15 -8 15 -10z m30 6 c0 -5 -5 -10 -11 -10 -5 0 -7 5 -4 10 3 6
8 10 11 10 2 0 4 -4 4 -10z m-160 -10 c0 -5 -2 -10 -4 -10 -3 0 -8 5 -11 10
-3 6 -1 10 4 10 6 0 11 -4 11 -10z m83 -11 c-8 -8 -13 -7 -18 2 -5 8 -4 10 3
5 7 -4 12 -2 12 5 0 7 3 9 7 6 4 -4 2 -12 -4 -18z m107 6 c5 3 14 -5 20 -17 9
-20 9 -21 -2 -7 -7 9 -17 16 -23 17 -5 0 -10 5 -11 12 -2 6 -1 7 3 0 2 -5 9
-8 13 -5z m144 0 c3 -8 1 -15 -4 -15 -6 0 -10 7 -10 15 0 8 2 15 4 15 2 0 6
-7 10 -15z m-99 -5 c-3 -5 -1 -10 6 -10 7 0 10 -3 6 -6 -9 -9 -28 6 -22 17 4
5 8 9 11 9 3 0 2 -4 -1 -10z m47 3 c-6 -3 -9 -10 -5 -16 4 -7 -1 -6 -10 2 -21
17 -21 17 6 18 12 0 16 -1 9 -4z m96 -18 c-3 -3 -9 2 -12 12 -6 14 -5 15 5 6
7 -7 10 -15 7 -18z m30 0 c-3 -3 -9 2 -12 12 -6 14 -5 15 5 6 7 -7 10 -15 7
-18z m-438 11 c0 -2 -7 -7 -16 -10 -8 -3 -12 -2 -9 4 6 10 25 14 25 6z m188
-21 c-3 -3 -9 2 -12 12 -6 14 -5 15 5 6 7 -7 10 -15 7 -18z m-158 5 c0 -5 -4
-10 -10 -10 -5 0 -10 5 -10 10 0 6 5 10 10 10 6 0 10 -4 10 -10z m100 5 c0 -2
-10 -9 -22 -15 -22 -11 -22 -10 -4 4 21 17 26 19 26 11z m35 -4 c3 -5 0 -13
-6 -17 -7 -4 -9 -3 -5 4 3 5 0 13 -6 15 -9 4 -10 6 -1 6 6 1 14 -3 18 -8z
m305 -1 c0 -5 -4 -10 -10 -10 -5 0 -10 5 -10 10 0 6 5 10 10 10 6 0 10 -4 10
-10z m-520 -4 c0 -2 -8 -10 -17 -17 -16 -13 -17 -12 -4 4 13 16 21 21 21 13z
m270 -11 c5 3 11 1 14 -4 4 -5 -2 -8 -11 -7 -9 2 -18 8 -19 15 -1 6 0 7 3 1 2
-5 9 -8 13 -5z m-236 -11 c5 -14 4 -15 -9 -4 -17 14 -19 20 -6 20 5 0 12 -7
15 -16z m151 6 c-3 -5 -12 -10 -18 -10 -7 0 -6 4 3 10 19 12 23 12 15 0z m155
0 c0 -5 -4 -10 -10 -10 -5 0 -10 5 -10 10 0 6 5 10 10 10 6 0 10 -4 10 -10z
m145 0 c3 -5 1 -10 -4 -10 -6 0 -11 5 -11 10 0 6 2 10 4 10 3 0 8 -4 11 -10z
m-240 -30 c3 0 3 5 -1 12 -4 7 -3 8 5 4 11 -7 6 -26 -8 -26 -4 0 -16 7 -27 16
-18 15 -18 15 3 5 12 -6 24 -11 28 -11z m70 10 c3 -5 1 -10 -4 -10 -6 0 -11 5
-11 10 0 6 2 10 4 10 3 0 8 -4 11 -10z m205 0 c0 -5 -2 -10 -4 -10 -3 0 -8 5
-11 10 -3 6 -1 10 4 10 6 0 11 -4 11 -10z m-302 -26 c2 -1 -8 -1 -21 0 -15 0
-23 6 -20 14 4 10 9 10 22 0 9 -7 17 -13 19 -14z m67 7 c-3 -6 -11 -11 -16
-11 -5 0 -4 6 3 14 14 16 24 13 13 -3z m28 -16 c-3 -9 -8 -14 -10 -11 -3 3 -2
9 2 15 9 16 15 13 8 -4z m-120 -26 c-8 -8 -13 -7 -18 2 -5 8 -4 10 3 5 7 -4
12 -2 12 5 0 7 3 9 7 6 4 -4 2 -12 -4 -18z m88 -6 c-12 -20 -14 -14 -5 12 4 9
9 14 11 11 3 -2 0 -13 -6 -23z m-26 7 c3 -6 -1 -7 -10 -4 -11 5 -14 2 -9 -12
5 -15 4 -16 -4 -4 -11 15 -7 30 8 30 5 0 12 -4 15 -10z m-50 -30 c3 0 3 5 0
10 -3 6 -4 10 -1 10 17 0 13 -21 -6 -31 -13 -6 -20 -8 -16 -4 4 4 0 14 -10 22
-15 13 -15 13 5 4 12 -6 24 -11 28 -11z m93 -4 c-2 -1 -10 -7 -19 -14 -13 -10
-18 -10 -22 0 -3 8 5 14 20 14 13 1 23 1 21 0z m37 -15 c3 -5 0 -13 -6 -17 -7
-4 -9 -3 -5 4 3 5 0 13 -6 15 -9 4 -10 6 -1 6 6 1 14 -3 18 -8z m-24 -23 c6
-13 8 -20 4 -16 -4 4 -14 0 -22 -10 -13 -15 -13 -15 -4 5 14 28 14 36 -1 27
-7 -4 -8 -3 -4 4 10 17 14 15 27 -10z m-111 -8 c0 -5 -5 -10 -11 -10 -5 0 -7
5 -4 10 3 6 8 10 11 10 2 0 4 -4 4 -10z m44 -5 c-10 -8 -23 -15 -28 -15 -6 0
-1 7 10 15 10 8 23 15 28 15 6 0 1 -7 -10 -15z m36 0 c0 -2 -10 -9 -22 -15
-22 -11 -22 -10 -4 4 21 17 26 19 26 11z m535 -15 c-3 -6 4 -10 17 -11 13 0
17 -3 10 -6 -18 -7 -44 5 -37 17 3 5 8 10 11 10 3 0 2 -4 -1 -10z m-595 -25
c0 -8 -2 -15 -4 -15 -2 0 -6 7 -10 15 -3 8 -1 15 4 15 6 0 10 -7 10 -15z m85
5 c-3 -5 -12 -10 -18 -10 -7 0 -6 4 3 10 19 12 23 12 15 0z m603 -15 c-3 -3
-9 2 -12 12 -6 14 -5 15 5 6 7 -7 10 -15 7 -18z m-45 -6 c-8 -8 -13 -7 -18 2
-5 8 -4 10 3 5 7 -4 12 -2 12 5 0 7 3 9 7 6 4 -4 2 -12 -4 -18z m-663 1 c0 -5
-2 -10 -4 -10 -3 0 -8 5 -11 10 -3 6 -1 10 4 10 6 0 11 -4 11 -10z m54 -1 c-4
-8 1 -9 17 -5 13 3 18 3 11 0 -6 -3 -9 -10 -6 -16 4 -6 -3 -5 -15 2 -18 9 -21
30 -5 30 3 0 2 -5 -2 -11z m68 -6 c-6 -2 -10 -9 -7 -13 3 -5 -5 -14 -17 -20
-22 -11 -22 -10 -4 4 11 9 16 16 12 16 -4 0 -4 5 -1 10 3 6 12 10 18 9 9 0 8
-2 -1 -6z m648 -17 c0 -2 -7 -7 -16 -10 -8 -3 -12 -2 -9 4 6 10 25 14 25 6z
m30 -16 c0 -5 -4 -10 -10 -10 -5 0 -10 5 -10 10 0 6 5 10 10 10 6 0 10 -4 10
-10z m-770 -14 c0 -3 -4 -8 -10 -11 -5 -3 -10 -1 -10 4 0 6 5 11 10 11 6 0 10
-2 10 -4z m34 -8 c-3 -4 -9 -8 -15 -8 -5 0 -9 4 -9 8 0 5 7 9 15 9 8 0 12 -4
9 -9z m39 -3 c-3 -9 -8 -14 -10 -11 -3 3 -2 9 2 15 9 16 15 13 8 -4z m-113
-16 c0 8 3 11 6 8 4 -4 1 -13 -5 -21 -8 -9 -10 -27 -6 -45 4 -17 6 -34 5 -37
-1 -4 4 -10 11 -15 7 -4 14 -15 15 -23 1 -9 -2 -14 -7 -10 -5 3 -9 -5 -9 -18
0 -19 2 -20 11 -8 9 13 10 13 6 0 -2 -8 -10 -14 -17 -12 -18 4 -81 -38 -74
-49 3 -6 -18 3 -48 20 -29 16 -98 46 -153 66 -55 20 -105 41 -112 47 -18 15
-16 45 3 52 45 17 104 -2 104 -34 0 -19 7 -20 125 -20 l125 0 0 58 c0 40 3 53
10 42 8 -12 10 -12 10 -1z m760 -8 c0 -4 -7 -16 -16 -27 -15 -18 -15 -18 -5 3
14 28 14 36 -1 27 -7 -4 -8 -3 -4 5 7 11 26 6 26 -8z m50 10 c0 -6 -4 -12 -8
-15 -5 -3 -9 1 -9 9 0 8 4 15 9 15 4 0 8 -4 8 -9z m-763 -20 c-1 -15 -4 -17
-14 -9 -15 12 -17 22 -3 13 6 -3 10 -1 10 4 0 6 2 11 4 11 3 0 4 -9 3 -19z
m800 0 c-1 -15 -4 -17 -14 -9 -15 12 -17 22 -3 13 6 -3 10 -1 10 4 0 6 2 11 4
11 3 0 4 -9 3 -19z m-732 -1 c-3 -5 -12 -10 -18 -10 -7 0 -6 4 3 10 19 12 23
12 15 0z m610 1 c3 -5 0 -13 -6 -17 -7 -4 -9 -3 -5 4 3 5 0 13 -6 15 -9 4 -10
6 -1 6 6 1 14 -3 18 -8z m-40 -11 c3 -6 -1 -7 -9 -4 -18 7 -21 14 -7 14 6 0
13 -4 16 -10z m208 3 c-7 -2 -19 -2 -25 0 -7 3 -2 5 12 5 14 0 19 -2 13 -5z
m-83 -13 c0 -5 -4 -10 -10 -10 -5 0 -10 5 -10 10 0 6 5 10 10 10 6 0 10 -4 10
-10z m-768 -14 c7 4 8 2 4 -5 -9 -13 -26 -5 -25 12 0 9 2 8 6 -1 2 -6 10 -9
15 -6z m633 -4 c-3 -3 -11 0 -18 7 -9 10 -8 11 6 5 10 -3 15 -9 12 -12z m167
4 c7 4 8 2 4 -5 -9 -13 -26 -5 -25 12 0 9 2 8 6 -1 2 -6 10 -9 15 -6z m-132
-6 c0 -5 -4 -10 -10 -10 -5 0 -10 5 -10 10 0 6 5 10 10 10 6 0 10 -4 10 -10z
m45 0 c-3 -5 -12 -10 -18 -10 -7 0 -6 4 3 10 19 12 23 12 15 0z m30 0 c3 -5 1
-10 -4 -10 -6 0 -11 5 -11 10 0 6 2 10 4 10 3 0 8 -4 11 -10z m107 3 c-6 -2
-10 -8 -7 -13 3 -4 -2 -10 -10 -14 -8 -3 -17 0 -21 6 -4 6 -3 8 3 5 6 -4 13 0
17 8 3 8 11 15 18 14 10 0 10 -2 0 -6z m-802 -7 c0 -2 -6 -9 -14 -15 -11 -9
-16 -9 -22 0 -4 8 -3 9 4 5 7 -4 12 -2 12 3 0 6 5 11 10 11 6 0 10 -2 10 -4z
m557 -11 c0 -8 -4 -15 -9 -15 -10 0 -11 14 -1 23 9 10 10 9 10 -8z m-602 -25
c-3 -4 0 -11 5 -13 7 -4 6 -5 0 -3 -7 1 -10 5 -8 8 2 4 -6 14 -17 23 -19 16
-19 16 3 5 12 -6 20 -15 17 -20z m815 0 c8 -5 11 -10 5 -10 -5 0 -21 10 -35
21 -24 20 -5 13 30 -11z m-128 13 c-6 -2 -10 -9 -7 -13 3 -5 2 -11 -3 -14 -4
-2 -9 4 -9 15 -1 12 4 19 15 18 11 0 12 -2 4 -6z m40 0 c-6 -2 -9 -10 -6 -15
4 -7 2 -8 -5 -4 -13 9 -5 26 12 25 9 0 8 -2 -1 -6z m36 -18 c-3 -3 -9 2 -12
12 -6 14 -5 15 5 6 7 -7 10 -15 7 -18z m-125 1 c4 -10 1 -13 -9 -9 -7 3 -14 9
-14 14 0 14 17 10 23 -5z m-578 -16 c-3 -5 -12 -10 -18 -10 -7 0 -6 4 3 10 19
12 23 12 15 0z m531 -22 c-9 -12 -16 -19 -16 -15 0 11 24 47 28 42 2 -2 -3
-14 -12 -27z m123 9 c0 -9 -2 -8 -6 1 -2 6 -10 9 -15 6 -7 -4 -8 -2 -4 5 9 13
26 5 25 -12z m121 3 c-6 -11 -13 -20 -16 -20 -2 0 0 9 6 20 6 11 13 20 16 20
2 0 0 -9 -6 -20z m-50 -28 c0 -1 -9 2 -20 8 -11 6 -20 15 -20 20 0 6 9 2 20
-7 11 -10 20 -19 20 -21z m-766 13 c-4 -8 -8 -15 -10 -15 -2 0 -4 7 -4 15 0 8
4 15 10 15 5 0 7 -7 4 -15z m646 5 c0 -5 -4 -10 -10 -10 -5 0 -10 5 -10 10 0
6 5 10 10 10 6 0 10 -4 10 -10z m-163 -15 c0 -8 -4 -12 -9 -9 -5 3 -6 10 -3
15 9 13 12 11 12 -6z m198 5 c3 -6 -1 -7 -9 -4 -18 7 -21 14 -7 14 6 0 13 -4
16 -10z m-645 -6 c0 -8 -19 -13 -24 -6 -3 5 1 9 9 9 8 0 15 -2 15 -3z m494 -2
c3 -5 -1 -9 -9 -9 -8 0 -12 4 -9 9 3 4 7 8 9 8 2 0 6 -4 9 -8z m-549 -42 c3
-5 1 -10 -4 -10 -6 0 -11 5 -11 10 0 6 2 10 4 10 3 0 8 -4 11 -10z m-32 -21
c-8 -8 -13 -7 -18 2 -5 8 -4 10 3 5 7 -4 12 -2 12 5 0 7 3 9 7 6 4 -4 2 -12
-4 -18z m-28 -8 c3 -5 0 -13 -6 -17 -8 -5 -9 -3 -4 6 6 10 4 12 -9 7 -10 -4
-15 -3 -11 3 8 13 22 13 30 1z m38 -31 c3 -11 0 -23 -6 -27 -7 -3 -9 -3 -5 2
4 4 0 14 -10 22 -9 8 -11 12 -4 8 6 -3 12 -1 12 4 0 18 7 12 13 -9z m-733 -42
c0 -3 -9 -6 -20 -5 -11 1 -20 5 -20 9 0 3 9 6 20 5 11 -1 20 -5 20 -9z m735
-18 c-3 -5 -12 -10 -18 -10 -7 0 -6 4 3 10 19 12 23 12 15 0z m-741 -28 c2 -4
-4 -8 -14 -8 -10 0 -16 4 -14 8 3 4 9 8 14 8 5 0 11 -4 14 -8z m763 -57 c0 -8
-4 -12 -9 -9 -4 3 -8 9 -8 15 0 5 4 9 8 9 5 0 9 -7 9 -15z m44 -4 c-6 -10 -7
-21 -3 -25 3 -4 -1 -4 -10 -1 -15 6 -15 8 0 26 21 24 26 24 13 0z m-51 -66 c0
-5 -5 -3 -10 5 -5 8 -10 20 -10 25 0 6 5 3 10 -5 5 -8 10 -19 10 -25z m45 5
c3 -5 1 -10 -4 -10 -6 0 -11 5 -11 10 0 6 2 10 4 10 3 0 8 -4 11 -10z m-4 -37
c13 -16 12 -17 -3 -4 -17 13 -22 21 -14 21 2 0 10 -8 17 -17z m-15 -15 c4 -7
3 -8 -4 -4 -15 9 -15 1 -2 -25 6 -10 8 -19 6 -19 -10 0 -27 41 -21 50 8 13 12
13 21 -2z m41 -27 c0 -11 -5 -18 -9 -15 -4 3 -5 11 -1 19 7 21 12 19 10 -4z
m-84 -36 c-3 -9 -8 -14 -10 -11 -3 3 -2 9 2 15 9 16 15 13 8 -4z m42 -3 c-3
-3 -11 0 -18 7 -9 10 -8 11 6 5 10 -3 15 -9 12 -12z m1019 6 c-3 -4 0 -8 7 -8
7 0 10 -3 6 -6 -3 -3 -16 1 -28 9 -22 16 -22 16 -1 14 11 0 18 -5 16 -9z
m-1042 -54 c-6 -12 -9 -7 -9 16 0 23 3 28 9 16 5 -9 5 -23 0 -32z m43 36 c-3
-5 -12 -10 -18 -10 -7 0 -6 4 3 10 19 12 23 12 15 0z m1005 -24 c-4 -4 -16 -4
-26 2 -16 9 -14 10 8 9 15 -1 23 -6 18 -11z m-1003 -12 c-3 -3 -12 -4 -19 -1
-8 3 -5 6 6 6 11 1 17 -2 13 -5z m983 -16 c10 -21 10 -21 -3 -6 -8 10 -18 14
-22 10 -5 -4 -5 -1 -1 6 10 17 14 15 26 -10z m-1083 -10 c-3 -8 -6 -5 -6 6 -1
11 2 17 5 13 3 -3 4 -12 1 -19z m33 7 c0 -8 -4 -15 -10 -15 -5 0 -7 7 -4 15 4
8 8 15 10 15 2 0 4 -7 4 -15z m-53 -17 c2 -17 0 -19 -7 -8 -5 8 -6 18 -4 22 8
12 10 10 11 -14z m86 4 c-10 -10 -20 -17 -22 -16 -6 5 20 34 30 34 5 0 1 -8
-8 -18z m54 -1 c0 -11 -5 -18 -9 -15 -4 3 -5 11 -1 19 7 21 12 19 10 -4z m916
2 c-5 -12 -3 -14 7 -8 9 5 11 4 6 -4 -4 -6 -12 -9 -17 -6 -12 8 -12 35 1 35 5
0 6 -7 3 -17z m-963 -22 c-13 -26 -13 -34 2 -25 7 5 8 3 3 -5 -13 -22 -28 4
-16 28 7 12 14 21 17 21 2 0 0 -9 -6 -19z m816 7 c5 -7 3 -8 -6 -3 -10 6 -12
4 -6 -11 5 -14 4 -16 -5 -7 -6 6 -8 16 -5 22 9 14 13 14 22 -1z m-942 -17
c-10 -10 -21 -16 -24 -14 -3 3 4 11 14 19 28 20 33 17 10 -5z m76 -12 c0 -14
-17 -10 -23 5 -4 10 -1 13 9 9 7 -3 14 -9 14 -14z m600 17 c0 -2 -7 -7 -16
-10 -8 -3 -12 -2 -9 4 6 10 25 14 25 6z m31 -13 c13 -16 12 -17 -3 -4 -17 13
-22 21 -14 21 2 0 10 -8 17 -17z m424 -1 c-3 -3 -11 0 -18 7 -9 10 -8 11 6 5
10 -3 15 -9 12 -12z m-40 -2 c-3 -5 -1 -10 6 -10 7 0 10 -3 6 -6 -9 -9 -28 6
-22 17 4 5 8 9 11 9 3 0 2 -4 -1 -10z m-1657 -19 c78 -21 90 -27 77 -38 -4 -5
-10 -2 -12 5 -3 6 -9 12 -14 12 -6 0 -7 -5 -3 -12 4 -7 3 -8 -4 -4 -7 4 -18 4
-24 -1 -13 -7 -18 -9 -37 -12 -5 0 -17 -8 -25 -17 -20 -20 -36 -10 -29 17 4
12 0 25 -8 30 -12 7 -12 9 0 9 7 0 11 6 7 15 -3 8 -4 15 -3 15 1 0 35 -9 75
-19z m1715 4 c-3 -9 -8 -14 -10 -11 -3 3 -2 9 2 15 9 16 15 13 8 -4z m-522
-18 c-10 -9 -11 -8 -5 6 3 10 9 15 12 12 3 -3 0 -11 -7 -18z m-1314 -9 c-3 -8
-6 -5 -6 6 -1 11 2 17 5 13 3 -3 4 -12 1 -19z m727 -7 c-2 -3 -12 3 -22 13
-16 17 -16 18 5 5 12 -7 20 -15 17 -18z m21 19 c3 -6 -1 -7 -9 -4 -18 7 -21
14 -7 14 6 0 13 -4 16 -10z m39 -2 c-3 -4 -9 -8 -15 -8 -5 0 -9 4 -9 8 0 5 7
9 15 9 8 0 12 -4 9 -9z m41 2 c-3 -5 -12 -10 -18 -10 -7 0 -6 4 3 10 19 12 23
12 15 0z m30 0 c3 -5 1 -10 -4 -10 -6 0 -11 5 -11 10 0 6 2 10 4 10 3 0 8 -4
11 -10z m397 -22 c-8 -8 -9 -4 -5 13 4 13 8 18 11 10 2 -7 -1 -18 -6 -23z
m595 10 c-3 -8 -6 -5 -6 6 -1 11 2 17 5 13 3 -3 4 -12 1 -19z m-553 -4 c3 -8
2 -12 -4 -9 -6 3 -10 10 -10 16 0 14 7 11 14 -7z m49 -5 c-8 -8 -13 -7 -18 2
-5 8 -4 10 3 5 7 -4 12 -2 12 5 0 7 3 9 7 6 4 -4 2 -12 -4 -18z m464 15 c-3
-3 -12 -4 -19 -1 -8 3 -5 6 6 6 11 1 17 -2 13 -5z m-1530 -20 c-3 -3 -12 -4
-19 -1 -8 3 -5 6 6 6 11 1 17 -2 13 -5z m123 -4 c8 -5 11 -10 5 -10 -5 0 -17
5 -25 10 -8 5 -10 10 -5 10 6 0 17 -5 25 -10z m400 0 c0 -5 -2 -10 -4 -10 -3
0 -8 5 -11 10 -3 6 -1 10 4 10 6 0 11 -4 11 -10z m-776 -8 c3 -5 -1 -9 -9 -9
-8 0 -15 4 -15 9 0 4 4 8 9 8 6 0 12 -4 15 -8z m211 -2 c-3 -5 -12 -10 -18
-10 -7 0 -6 4 3 10 19 12 23 12 15 0z m65 0 c0 -5 -5 -10 -11 -10 -5 0 -7 5
-4 10 3 6 8 10 11 10 2 0 4 -4 4 -10z m35 -8 c-3 -3 -11 0 -18 7 -9 10 -8 11
6 5 10 -3 15 -9 12 -12z m927 4 c-22 -12 -22 -13 -6 -27 16 -12 17 -12 10 1
-4 8 -1 6 8 -5 25 -33 59 -64 66 -60 3 2 7 -7 8 -21 2 -23 -1 -24 -63 -24
l-65 0 0 71 c0 38 4 68 8 65 4 -2 14 -1 22 5 8 5 20 9 25 8 6 0 0 -5 -13 -13z
m511 -3 c-6 -16 -5 -16 10 -4 12 9 17 10 17 2 0 -7 5 -9 12 -5 6 4 8 3 5 -3
-10 -16 -52 -8 -55 10 -2 9 1 17 7 17 6 0 7 -8 4 -17z m67 7 c0 -5 -2 -10 -4
-10 -3 0 -8 5 -11 10 -3 6 -1 10 4 10 6 0 11 -4 11 -10z m-1005 -10 c3 -6 -1
-7 -9 -4 -18 7 -21 14 -7 14 6 0 13 -4 16 -10z m460 0 c-3 -5 -1 -10 6 -10 7
0 10 -3 6 -6 -9 -9 -28 6 -22 17 4 5 8 9 11 9 3 0 2 -4 -1 -10z m-1146 -23 c0
-9 -2 -8 -6 1 -2 6 -10 9 -15 6 -7 -4 -8 -2 -4 5 9 13 26 5 25 -12z m107 11
c4 -7 3 -8 -4 -4 -7 4 -12 2 -12 -5 0 -7 -3 -10 -6 -6 -6 5 3 27 11 27 2 0 7
-5 11 -12z m99 2 c-3 -5 -12 -10 -18 -10 -7 0 -6 4 3 10 19 12 23 12 15 0z
m49 -2 c-3 -4 -11 -5 -19 -1 -21 7 -19 12 4 10 11 0 18 -5 15 -9z m946 8 c0
-2 -7 -7 -16 -10 -8 -3 -12 -2 -9 4 6 10 25 14 25 6z m-1033 -23 c3 -7 -6 -17
-19 -23 -22 -11 -22 -11 -3 5 17 14 18 17 5 26 -12 9 -12 10 -1 7 8 -3 16 -9
18 -15z m1523 7 c-13 -9 -13 -11 0 -20 9 -6 10 -10 3 -10 -15 0 -26 17 -18 30
3 6 12 10 18 10 7 0 6 -4 -3 -10z m-1812 -14 c-10 -7 -14 -17 -10 -21 4 -5 1
-5 -7 0 -12 7 -11 10 4 22 24 17 36 17 13 -1z m82 4 c8 -5 11 -10 5 -10 -5 0
-17 5 -25 10 -8 5 -10 10 -5 10 6 0 17 -5 25 -10z m98 -11 c3 -11 2 -11 -7 1
-10 13 -12 13 -21 0 -5 -8 -10 -10 -10 -4 0 27 31 30 38 3z m172 11 c0 -5 -2
-10 -4 -10 -3 0 -8 5 -11 10 -3 6 -1 10 4 10 6 0 11 -4 11 -10z m-280 -26 c0
-2 -9 0 -20 6 -11 6 -20 13 -20 16 0 2 9 0 20 -6 11 -6 20 -13 20 -16z m734
17 c3 -5 -1 -11 -9 -15 -8 -3 -17 0 -21 6 -4 7 -3 8 4 4 7 -4 12 -2 12 3 0 13
7 14 14 2z m940 -2 c-4 -8 1 -9 17 -5 20 6 21 5 6 -4 -19 -12 -41 -4 -32 11 4
5 8 9 11 9 3 0 2 -5 -2 -11z m-1718 -11 c4 -7 4 -10 -1 -6 -4 4 -14 0 -22 -10
-13 -15 -13 -15 -3 6 12 25 16 27 26 10z m79 2 c-3 -5 -12 -10 -18 -10 -7 0
-6 4 3 10 19 12 23 12 15 0z m16 -13 c-10 -9 -11 -8 -5 6 3 10 9 15 12 12 3
-3 0 -11 -7 -18z m83 7 c3 -8 2 -12 -4 -9 -6 3 -10 10 -10 16 0 14 7 11 14 -7z
m31 -2 c-3 -3 -11 0 -18 7 -9 10 -8 11 6 5 10 -3 15 -9 12 -12z m1055 8 c0 -5
-2 -10 -4 -10 -3 0 -8 5 -11 10 -3 6 -1 10 4 10 6 0 11 -4 11 -10z m-528 -36
c-9 -16 -10 -14 -9 8 1 15 6 23 11 18 4 -4 4 -16 -2 -26z m-703 3 c0 -9 -2 -8
-6 1 -2 6 -10 9 -15 6 -7 -4 -8 -2 -4 5 9 13 26 5 25 -12z m119 2 c3 -11 2
-11 -7 1 -10 13 -12 13 -21 0 -5 -8 -10 -10 -10 -4 0 27 31 30 38 3z m95 6
c-3 -9 -8 -14 -10 -11 -3 3 -2 9 2 15 9 16 15 13 8 -4z m554 -4 c0 -11 -5 -18
-9 -15 -4 3 -5 11 -1 19 7 21 12 19 10 -4z m983 5 c-4 -4 -16 -4 -26 2 -16 9
-14 10 8 9 15 -1 23 -6 18 -11z m-1791 -32 c14 -12 -19 -1 -35 12 -18 14 -18
14 6 3 14 -6 27 -13 29 -15z m81 22 c0 -2 -7 -6 -15 -10 -8 -3 -15 -1 -15 4 0
6 7 10 15 10 8 0 15 -2 15 -4z m30 -6 c0 -5 -2 -10 -4 -10 -3 0 -8 5 -11 10
-3 6 -1 10 4 10 6 0 11 -4 11 -10z m80 6 c0 -3 -4 -8 -10 -11 -5 -3 -10 -1
-10 4 0 6 5 11 10 11 6 0 10 -2 10 -4z m40 -6 c0 -5 -7 -7 -15 -4 -8 4 -15 8
-15 10 0 2 7 4 15 4 8 0 15 -4 15 -10z m1540 -12 c10 -21 10 -21 -3 -6 -8 10
-18 14 -22 10 -5 -4 -5 -1 -1 6 10 17 14 15 26 -10z m-1743 -18 c2 -11 -1 -20
-5 -20 -4 0 -8 11 -8 25 0 28 8 24 13 -5z m51 6 c-7 -8 -15 -12 -17 -11 -5 6
10 25 20 25 5 0 4 -6 -3 -14z m48 -1 c-1 -8 -6 -18 -11 -22 -4 -4 -5 -2 -1 5
4 7 2 12 -6 12 -9 0 -9 3 2 10 19 12 19 13 16 -5z m31 -7 c-3 -8 -6 -5 -6 6
-1 11 2 17 5 13 3 -3 4 -12 1 -19z m58 12 c3 -6 -1 -7 -9 -4 -18 7 -21 14 -7
14 6 0 13 -4 16 -10z m538 -8 c-10 -10 -20 -17 -22 -16 -6 5 20 34 30 34 5 0
1 -8 -8 -18z m970 1 c-5 -12 -3 -14 7 -8 9 5 11 4 6 -4 -4 -6 -12 -9 -17 -6
-12 8 -12 35 1 35 5 0 6 -7 3 -17z m-1541 -49 c-6 -12 -9 -7 -9 16 0 23 3 28
9 16 5 -9 5 -23 0 -32z m33 28 c-3 -3 -11 0 -18 7 -9 10 -8 11 6 5 10 -3 15
-9 12 -12z m-215 -8 c0 -2 -7 -4 -15 -4 -8 0 -15 4 -15 10 0 5 7 7 15 4 8 -4
15 -8 15 -10z m68 -11 c-12 -15 -22 -18 -14 -4 4 5 0 11 -6 14 -7 3 -3 4 9 4
17 -1 19 -4 11 -14z m37 -4 c-4 -5 -12 -9 -18 -8 -9 0 -8 2 1 6 6 2 9 10 6 15
-4 7 -2 8 5 4 6 -4 9 -12 6 -17z m53 0 c3 -11 2 -11 -7 1 -9 13 -12 12 -26 -5
-16 -19 -16 -19 -5 3 12 25 31 25 38 1z m1607 3 c-3 -3 -11 0 -18 7 -9 10 -8
11 6 5 10 -3 15 -9 12 -12z m-1740 -2 c3 -5 1 -10 -4 -10 -6 0 -11 5 -11 10 0
6 2 10 4 10 3 0 8 -4 11 -10z m1700 0 c-3 -5 -1 -10 6 -10 7 0 10 -3 6 -6 -9
-9 -28 6 -22 17 4 5 8 9 11 9 3 0 2 -4 -1 -10z m58 -15 c-3 -9 -8 -14 -10 -11
-3 3 -2 9 2 15 9 16 15 13 8 -4z m-1784 -15 c-6 -5 -18 -6 -26 -3 -19 8 -16
11 13 11 17 0 22 -3 13 -8z m56 0 c3 -6 -1 -7 -9 -4 -18 7 -21 14 -7 14 6 0
13 -4 16 -10z m35 0 c0 -5 -4 -10 -10 -10 -5 0 -10 5 -10 10 0 6 5 10 10 10 6
0 10 -4 10 -10z m1707 -12 c-3 -8 -6 -5 -6 6 -1 11 2 17 5 13 3 -3 4 -12 1
-19z m-1752 -9 c4 -5 -2 -6 -11 -2 -13 5 -15 3 -9 -8 8 -12 6 -12 -8 0 -21 17
-21 16 3 18 11 1 22 -2 25 -8z m65 1 c0 -5 -5 -10 -11 -10 -5 0 -7 5 -4 10 3
6 8 10 11 10 2 0 4 -4 4 -10z m1640 -33 c0 -4 5 -5 12 -1 7 5 8 3 3 -6 -6 -10
-11 -9 -22 5 -7 11 -13 23 -13 28 0 4 -5 5 -12 1 -7 -5 -8 -3 -3 6 6 10 11 9
22 -5 7 -11 13 -23 13 -28z m-1020 8 c0 -8 -2 -15 -4 -15 -2 0 -6 7 -10 15 -3
8 -1 15 4 15 6 0 10 -7 10 -15z m1060 5 c0 -5 -2 -10 -4 -10 -3 0 -8 5 -11 10
-3 6 -1 10 4 10 6 0 11 -4 11 -10z m-1682 -25 c-3 -3 -9 2 -12 12 -6 14 -5 15
5 6 7 -7 10 -15 7 -18z m1599 -17 c0 -13 -1 -17 -4 -10 -3 6 -10 9 -16 5 -7
-4 -6 1 2 10 17 21 17 21 18 -5z m93 18 c0 -2 -7 -7 -16 -10 -8 -3 -12 -2 -9
4 6 10 25 14 25 6z m-55 -16 c3 -6 -1 -7 -9 -4 -18 7 -21 14 -7 14 6 0 13 -4
16 -10z m-75 -21 c0 -5 -4 -9 -8 -9 -5 0 -9 7 -9 15 0 8 4 12 9 9 4 -3 8 -9 8
-15z m123 4 c-7 -2 -19 -2 -25 0 -7 3 -2 5 12 5 14 0 19 -2 13 -5z m-1600 -24
c-8 -8 -13 -7 -18 2 -5 8 -4 10 3 5 7 -4 12 -2 12 5 0 7 3 9 7 6 4 -4 2 -12
-4 -18z m537 1 c0 -5 -4 -10 -10 -10 -5 0 -10 5 -10 10 0 6 5 10 10 10 6 0 10
-4 10 -10z m895 0 c-27 -12 -43 -12 -25 0 8 5 22 9 30 9 10 0 8 -3 -5 -9z m70
0 c3 -5 1 -10 -4 -10 -6 0 -11 5 -11 10 0 6 2 10 4 10 3 0 8 -4 11 -10z m-25
-20 c0 -5 -4 -10 -10 -10 -5 0 -10 5 -10 10 0 6 5 10 10 10 6 0 10 -4 10 -10z
m-30 -15 c0 -12 -19 -12 -23 0 -4 9 -1 12 9 8 7 -3 14 -7 14 -8z m-886 -4 c3
-5 -1 -11 -9 -14 -9 -4 -12 -1 -8 9 6 16 10 17 17 5z m107 -24 c-8 -8 -14 -7
-23 2 -11 10 -9 11 6 5 15 -6 17 -4 11 6 -6 9 -4 11 4 5 9 -5 10 -10 2 -18z
m744 14 c3 -5 0 -13 -6 -17 -7 -4 -9 -3 -5 4 3 6 -2 13 -11 15 -16 4 -16 5 -1
6 9 0 19 -3 23 -8z m-805 -45 c0 -6 -7 -1 -15 10 -8 10 -15 23 -15 28 0 6 7 1
15 -10 8 -10 15 -23 15 -28z m24 28 c3 -8 2 -12 -4 -9 -6 3 -10 10 -10 16 0
14 7 11 14 -7z m742 4 c4 -7 3 -8 -4 -4 -15 9 -15 1 -2 -25 6 -10 8 -19 6 -19
-10 0 -27 41 -21 50 8 13 12 13 21 -2z m-846 -18 c-8 -5 -19 -10 -25 -10 -5 0
-3 5 5 10 8 5 20 10 25 10 6 0 3 -5 -5 -10z m770 0 c0 -5 -4 -10 -10 -10 -5 0
-10 5 -10 10 0 6 5 10 10 10 6 0 10 -4 10 -10z m-754 -39 c-4 -6 -13 -11 -19
-10 -9 0 -9 2 1 6 6 2 12 9 12 14 0 6 -5 7 -12 3 -7 -5 -8 -3 -3 5 5 9 11 9
17 3 6 -6 7 -15 4 -21z m94 25 c0 -3 -4 -8 -10 -11 -5 -3 -10 -1 -10 4 0 6 5
11 10 11 6 0 10 -2 10 -4z m40 -6 c0 -5 -7 -7 -15 -4 -8 4 -15 8 -15 10 0 2 7
4 15 4 8 0 15 -4 15 -10z m596 -15 c1 -9 -4 -11 -14 -7 -10 4 -12 7 -4 10 7 2
9 9 5 15 -3 7 -2 8 2 4 5 -4 10 -14 11 -22z m84 -10 c0 -5 -5 -3 -10 5 -5 8
-10 20 -10 25 0 6 5 3 10 -5 5 -8 10 -19 10 -25z m-20 -5 c0 -6 -9 -2 -20 7
-11 10 -20 19 -20 21 0 1 9 -2 20 -8 11 -6 20 -15 20 -20z m-692 6 c-7 -8 -15
-12 -17 -11 -5 6 10 25 20 25 5 0 4 -6 -3 -14z m585 -11 c-3 -9 -8 -14 -10
-11 -3 3 -2 9 2 15 9 16 15 13 8 -4z m-703 -10 c0 -1 -12 -2 -26 -2 -17 0 -22
2 -13 7 10 7 39 3 39 -5z m30 5 c0 -5 -5 -10 -11 -10 -5 0 -7 5 -4 10 3 6 8
10 11 10 2 0 4 -4 4 -10z m695 0 c-8 -13 1 -13 26 0 10 6 19 8 19 6 0 -10 -41
-27 -50 -21 -10 6 -5 25 6 25 3 0 2 -4 -1 -10z m-655 -44 c0 -6 -7 -1 -15 10
-8 10 -15 23 -15 28 0 6 7 1 15 -10 8 -10 15 -23 15 -28z m25 24 c3 -5 1 -10
-4 -10 -6 0 -11 5 -11 10 0 6 2 10 4 10 3 0 8 -4 11 -10z m39 2 c3 -5 -1 -9
-9 -9 -8 0 -15 4 -15 9 0 4 4 8 9 8 6 0 12 -4 15 -8z m36 -2 c0 -5 -5 -10 -11
-10 -5 0 -7 5 -4 10 3 6 8 10 11 10 2 0 4 -4 4 -10z m480 -1 c0 -4 -10 -6 -21
-4 -32 6 -34 13 -4 13 14 0 25 -4 25 -9z m30 1 c0 -5 -5 -10 -11 -10 -5 0 -7
5 -4 10 3 6 8 10 11 10 2 0 4 -4 4 -10z m-670 -23 c0 -7 -51 1 -57 8 -5 4 -2
5 5 1 6 -4 12 -2 12 4 0 8 6 8 20 0 11 -6 20 -12 20 -13z m18 -2 c-3 -3 -9 2
-12 12 -6 14 -5 15 5 6 7 -7 10 -15 7 -18z m280 11 c-7 -8 -15 -12 -17 -11 -5
6 10 25 20 25 5 0 4 -6 -3 -14z m399 -1 c0 -8 -4 -15 -9 -15 -10 0 -11 14 -1
23 9 10 10 9 10 -8z m-842 -5 c3 -5 1 -10 -4 -10 -6 0 -11 5 -11 10 0 6 2 10
4 10 3 0 8 -4 11 -10z m189 -16 c3 -8 2 -12 -4 -9 -6 3 -10 10 -10 16 0 14 7
11 14 -7z m47 -7 c-10 -9 -11 -8 -5 6 3 10 9 15 12 12 3 -3 0 -11 -7 -18z
m563 7 c3 -8 2 -12 -4 -9 -6 3 -10 10 -10 16 0 14 7 11 14 -7z m-774 -4 c0 -5
-5 -10 -11 -10 -5 0 -7 5 -4 10 3 6 8 10 11 10 2 0 4 -4 4 -10z m360 0 c0 -5
-5 -10 -11 -10 -5 0 -7 5 -4 10 3 6 8 10 11 10 2 0 4 -4 4 -10z m395 -12 c5 4
5 2 1 -5 -9 -16 -33 -6 -33 14 0 14 1 14 12 -1 7 -8 16 -12 20 -8z m-632 -9
c-8 -8 -13 -7 -18 2 -5 8 -4 10 3 5 7 -4 12 -2 12 5 0 7 3 9 7 6 4 -4 2 -12
-4 -18z m71 5 c3 -8 2 -12 -4 -9 -6 3 -10 10 -10 16 0 14 7 11 14 -7z m60 7
c3 -5 -1 -11 -9 -15 -8 -3 -17 0 -21 6 -4 7 -3 8 4 4 7 -4 12 -2 12 3 0 13 7
14 14 2z m-234 -11 c-8 -5 -19 -10 -25 -10 -5 0 -3 5 5 10 8 5 20 10 25 10 6
0 3 -5 -5 -10z m315 0 c3 -6 -1 -7 -9 -4 -18 7 -21 14 -7 14 6 0 13 -4 16 -10z
m40 0 c-3 -5 -12 -10 -18 -10 -7 0 -6 4 3 10 19 12 23 12 15 0z m335 6 c0 -2
-7 -7 -16 -10 -8 -3 -12 -2 -9 4 6 10 25 14 25 6z m-651 -51 c0 -5 -4 -3 -9 5
-5 8 -9 22 -9 30 0 16 17 -16 18 -35z m57 18 c-6 -6 -36 9 -36 18 0 5 9 4 20
-3 10 -7 18 -14 16 -15z m73 -7 c-3 -3 -11 5 -18 17 -13 21 -12 21 5 5 10 -10
16 -20 13 -22z m91 9 c0 -8 -2 -15 -4 -15 -2 0 -6 7 -10 15 -3 8 -1 15 4 15 6
0 10 -7 10 -15z m40 11 c0 -2 -7 -7 -16 -10 -8 -3 -12 -2 -9 4 6 10 25 14 25
6z m400 0 c0 -3 -4 -8 -10 -11 -5 -3 -10 -1 -10 4 0 6 5 11 10 11 6 0 10 -2
10 -4z m-555 -52 c-8 -6 -13 -14 -10 -17 3 -4 3 -6 1 -4 -2 1 -5 7 -7 12 -1 6
-9 16 -18 23 -14 11 -13 12 6 3 30 -15 33 -14 27 7 -5 14 -4 15 5 2 8 -11 7
-18 -4 -26z m65 32 c0 -2 -7 -6 -15 -10 -8 -3 -15 -1 -15 4 0 6 7 10 15 10 8
0 15 -2 15 -4z m30 -6 c0 -5 -2 -10 -4 -10 -3 0 -8 5 -11 10 -3 6 -1 10 4 10
6 0 11 -4 11 -10z m-163 -7 c-4 -3 1 -11 10 -18 13 -9 13 -14 3 -20 -8 -5 -11
-4 -6 3 3 6 -3 14 -15 17 -17 6 -19 9 -8 16 17 10 25 12 16 2z m148 -13 c3 -5
2 -10 -4 -10 -5 0 -13 5 -16 10 -3 6 -2 10 4 10 5 0 13 -4 16 -10z m-25 -21
c0 -5 -4 -9 -8 -9 -5 0 -9 7 -9 15 0 8 4 12 9 9 4 -3 8 -9 8 -15z m-75 -19 c3
-6 -1 -7 -9 -4 -18 7 -21 14 -7 14 6 0 13 -4 16 -10z m49 2 c2 -4 -4 -8 -14
-8 -10 0 -16 4 -14 8 3 4 9 8 14 8 5 0 11 -4 14 -8z"/>
<path d="M3387 4217 l-27 -42 22 -17 c12 -9 26 -15 29 -12 4 2 9 -1 11 -7 3
-9 10 -9 28 0 23 11 23 11 7 -2 -11 -9 -14 -18 -8 -21 5 -4 17 4 25 16 9 12
16 17 16 11 0 -7 -4 -15 -10 -18 -5 -3 -10 -11 -10 -16 0 -6 4 -8 9 -5 5 4 11
2 13 -3 1 -5 27 -23 57 -40 37 -23 52 -27 47 -16 -3 9 -2 13 4 10 6 -3 10 -13
10 -21 0 -8 5 -12 10 -9 6 3 10 1 10 -4 0 -6 5 -11 10 -11 6 0 20 -9 32 -20
12 -10 25 -17 30 -14 4 3 8 0 8 -6 0 -6 5 -8 10 -5 6 3 10 0 10 -7 0 -9 3 -9
10 2 8 12 10 12 10 1 0 -13 28 -40 42 -41 4 0 5 7 2 15 -4 8 -2 15 3 15 5 0 8
-18 7 -40 -1 -25 2 -40 10 -40 7 0 7 -3 -2 -8 -14 -10 -13 -103 3 -114 6 -5 6
-8 -2 -8 -16 0 -14 -110 2 -110 6 0 6 -3 -1 -8 -14 -9 -15 -252 -2 -252 5 0 6
5 3 10 -3 6 -1 10 4 10 6 0 11 -4 11 -8 0 -4 18 -8 40 -9 37 -1 40 1 40 26 0
15 -6 33 -12 40 -11 11 -10 12 0 7 10 -6 12 0 9 21 -3 22 -8 27 -25 25 -11 -2
-23 1 -25 6 -3 4 7 7 23 6 l29 -2 -2 117 c-2 113 -3 116 -24 113 -12 -2 -24 1
-26 6 -3 4 7 7 23 6 l28 -2 1 120 c0 67 -3 117 -8 113 -5 -3 -11 1 -14 7 -4
10 -7 11 -18 1 -7 -7 -18 -13 -23 -13 -6 0 -3 5 7 11 21 12 13 29 -14 29 -10
0 -19 3 -19 8 0 4 -9 13 -21 20 -12 8 -18 9 -14 3 3 -6 1 -11 -4 -11 -6 0 -11
6 -11 13 0 7 -9 18 -21 25 -17 11 -20 11 -14 0 5 -7 -2 -2 -15 10 -13 15 -30
22 -41 19 -11 -3 -22 0 -26 5 -4 7 -1 8 8 3 12 -8 12 -6 0 8 -7 9 -18 17 -23
17 -5 0 -16 7 -24 15 -8 8 -22 11 -31 8 -10 -4 -14 -2 -10 4 8 12 -40 36 -55
27 -6 -4 -8 -2 -5 3 4 6 -5 19 -19 28 -15 9 -23 12 -20 6 4 -6 3 -11 -2 -11
-6 0 -12 6 -15 14 -3 8 -14 19 -25 25 -15 8 -23 3 -45 -32z m58 3 c3 -5 1 -10
-4 -10 -6 0 -11 5 -11 10 0 6 2 10 4 10 3 0 8 -4 11 -10z m-20 -20 c3 -5 1
-10 -4 -10 -6 0 -11 5 -11 10 0 6 2 10 4 10 3 0 8 -4 11 -10z m54 -33 c0 -9
-2 -8 -6 1 -2 6 -10 9 -15 6 -7 -4 -8 -2 -4 5 9 13 26 5 25 -12z m-59 9 c0 -2
-7 -7 -16 -10 -8 -3 -12 -2 -9 4 6 10 25 14 25 6z m135 -14 c-3 -3 -11 0 -18
7 -9 10 -8 11 6 5 10 -3 15 -9 12 -12z m-29 -4 c4 -7 3 -8 -4 -4 -7 4 -12 2
-12 -5 0 -7 -3 -10 -6 -6 -6 5 3 27 11 27 2 0 7 -5 11 -12z m14 -28 c-6 -11
-15 -18 -20 -15 -4 3 -11 0 -13 -5 -4 -7 -5 -6 -3 1 1 6 5 9 9 7 5 -2 13 5 18
15 14 24 22 21 9 -3z m32 3 c-6 -2 -9 -10 -6 -15 4 -7 2 -8 -5 -4 -13 9 -5 26
12 25 9 0 8 -2 -1 -6z m34 -2 c-4 -5 0 -11 6 -14 7 -3 3 -4 -9 -4 -17 1 -19 4
-11 14 12 15 22 18 14 4z m-61 -31 c-3 -5 -1 -10 4 -10 6 0 11 -5 11 -11 0 -8
-5 -8 -15 1 -13 11 -12 30 1 30 3 0 2 -4 -1 -10z m98 -5 c4 -8 3 -16 -1 -19
-4 -3 -9 4 -9 15 -2 23 3 25 10 4z m-46 -17 c-3 -8 -6 -5 -6 6 -1 11 2 17 5
13 3 -3 4 -12 1 -19z m90 -10 c2 -17 0 -19 -7 -8 -5 8 -6 18 -4 22 8 12 10 10
11 -14z m-32 -18 c3 0 3 5 -1 12 -4 7 -3 8 5 4 11 -7 6 -26 -8 -26 -4 0 -16 7
-27 16 -18 15 -18 15 3 5 12 -6 24 -11 28 -11z m95 -11 c0 -4 -11 -6 -25 -5
-14 0 -25 4 -25 8 0 4 11 7 25 6 14 -1 25 -5 25 -9z m-60 -20 c0 -5 -4 -9 -8
-9 -5 0 -9 7 -9 15 0 8 4 12 9 9 4 -3 8 -9 8 -15z m40 -9 c0 -5 -9 -14 -20
-20 -16 -9 -18 -8 -14 5 3 8 10 12 15 9 5 -3 9 0 9 5 0 6 2 11 5 11 3 0 5 -4
5 -10z m94 -19 c-2 -3 -12 3 -22 13 -16 17 -16 18 5 5 12 -7 20 -15 17 -18z
m-60 -7 c3 -8 2 -12 -4 -9 -6 3 -10 10 -10 16 0 14 7 11 14 -7z m46 -14 c0 -5
-2 -10 -4 -10 -3 0 -8 5 -11 10 -3 6 -1 10 4 10 6 0 11 -4 11 -10z m90 -15 c0
-1 -12 -2 -26 -2 -17 0 -22 2 -13 7 10 7 39 3 39 -5z m0 -43 c0 -8 -1 -13 -3
-11 -1 2 -9 12 -16 22 -12 15 -12 17 3 11 9 -3 16 -13 16 -22z m-41 5 c-2 -1
-11 -8 -21 -15 -12 -10 -18 -10 -24 -1 -4 8 -3 9 4 5 7 -4 12 -2 12 3 0 6 8
11 17 11 9 0 14 -1 12 -3z m30 -39 c6 -18 7 -28 2 -23 -10 12 -25 55 -18 55 3
0 10 -15 16 -32z m-39 -8 c0 -5 -2 -10 -4 -10 -3 0 -8 5 -11 10 -3 6 -1 10 4
10 6 0 11 -4 11 -10z m-26 -34 c-4 -11 1 -13 18 -10 21 4 21 3 3 -5 -11 -4
-23 -7 -27 -4 -11 6 -10 33 2 33 5 0 7 -6 4 -14z m71 -15 c-6 -5 -25 10 -25
20 0 5 6 4 14 -3 8 -7 12 -15 11 -17z m-5 -25 c-4 -4 -16 -4 -26 2 -16 9 -14
10 8 9 15 -1 23 -6 18 -11z m-66 -8 c-5 -8 0 -9 15 -5 15 4 24 -1 32 -16 9
-20 9 -20 -4 -5 -8 10 -17 15 -20 12 -10 -10 -39 5 -32 16 3 5 8 10 11 10 3 0
2 -5 -2 -12z m-1 -75 c-5 -12 -3 -14 7 -8 9 5 11 4 6 -4 -4 -6 -12 -9 -17 -6
-12 8 -12 35 1 35 5 0 6 -7 3 -17z m42 -1 c-3 -3 -11 0 -18 7 -9 10 -8 11 6 5
10 -3 15 -9 12 -12z m18 -17 c-3 -9 -8 -14 -10 -11 -3 3 -2 9 2 15 9 16 15 13
8 -4z m14 -27 c-3 -8 -6 -5 -6 6 -1 11 2 17 5 13 3 -3 4 -12 1 -19z m-72 2
c-3 -5 -1 -10 6 -10 7 0 10 -3 6 -6 -9 -9 -28 6 -22 17 4 5 8 9 11 9 3 0 2 -4
-1 -10z m65 -30 c0 -5 -2 -10 -4 -10 -3 0 -8 5 -11 10 -3 6 -1 10 4 10 6 0 11
-4 11 -10z m-40 -11 c0 -5 5 -7 12 -3 7 4 8 3 4 -5 -6 -9 -11 -9 -22 0 -17 14
-18 19 -4 19 6 0 10 -5 10 -11z m40 -19 c-13 -9 -13 -11 0 -20 9 -6 10 -10 3
-10 -15 0 -26 17 -18 30 3 6 12 10 18 10 7 0 6 -4 -3 -10z m-66 -14 c-4 -11 1
-13 18 -10 21 4 21 3 3 -5 -11 -4 -23 -7 -27 -4 -11 6 -10 33 2 33 5 0 7 -6 4
-14z m66 -40 c-4 -4 -16 -4 -26 2 -16 9 -14 10 8 9 15 -1 23 -6 18 -11z m-66
-8 c-5 -8 0 -9 15 -5 15 4 24 -1 32 -16 9 -20 9 -20 -4 -5 -8 10 -17 15 -20
12 -10 -10 -39 5 -32 16 3 5 8 10 11 10 3 0 2 -5 -2 -12z m44 -74 c2 -1 -8 -1
-21 0 -15 0 -23 6 -20 14 4 10 9 10 22 0 9 -7 17 -13 19 -14z m12 -24 c-6 -11
-15 -20 -20 -20 -6 0 -2 9 7 20 10 11 19 20 21 20 1 0 -2 -9 -8 -20z m-20 -37
c0 -3 -9 -3 -20 0 -11 3 -20 0 -20 -6 0 -6 -3 -8 -6 -4 -12 11 6 25 26 20 11
-3 20 -8 20 -10z m40 -15 c0 -4 -4 -8 -9 -8 -6 0 -12 4 -15 8 -3 5 1 9 9 9 8
0 15 -4 15 -9z"/>
<path d="M2300 4234 c0 -8 5 -12 10 -9 6 4 8 11 5 16 -9 14 -15 11 -15 -7z"/>
<path d="M2270 4225 c-7 -8 -16 -15 -21 -15 -12 0 -113 -62 -117 -72 -2 -4
-10 -8 -17 -8 -17 0 -85 -39 -85 -49 0 -4 -6 -8 -13 -8 -15 0 -127 -61 -127
-69 0 -3 5 -2 12 2 7 4 8 3 4 -5 -4 -6 -12 -9 -17 -5 -6 3 -17 -2 -25 -12 -9
-11 -12 -12 -8 -4 7 13 5 13 -8 2 -18 -14 -21 -62 -4 -62 6 0 5 -4 -3 -9 -13
-8 -13 -12 0 -27 8 -10 9 -15 3 -11 -7 4 -11 -7 -12 -31 -1 -27 1 -33 8 -22 5
8 10 12 10 7 0 -4 -6 -16 -12 -27 -11 -17 -10 -22 1 -29 11 -7 11 -9 0 -14
-10 -4 -10 -6 -1 -6 6 -1 12 -6 12 -12 0 -5 -4 -7 -10 -4 -14 9 -12 -18 3 -34
6 -8 7 -11 1 -8 -8 4 -11 -28 -12 -108 0 -67 4 -113 9 -109 5 3 9 0 9 -5 0 -6
-4 -11 -10 -11 -14 0 -12 -43 3 -59 10 -11 10 -13 0 -7 -8 4 -13 1 -13 -8 0
-13 12 -16 53 -16 l54 0 1 70 c1 48 -3 70 -11 70 -8 0 -8 3 -2 8 6 4 12 31 13
60 1 43 -1 52 -16 53 -14 0 -14 2 -2 7 8 4 16 17 18 30 3 17 -2 22 -20 23 -21
1 -22 1 -3 7 28 9 33 98 7 119 -14 11 -14 12 -1 8 13 -5 16 3 16 40 1 43 17
80 32 71 3 -2 15 3 26 11 20 15 20 15 -1 10 -22 -5 -28 14 -9 30 4 4 5 3 2 -3
-4 -7 3 -14 18 -16 35 -7 156 66 149 90 -5 13 -4 14 4 4 8 -12 15 -11 43 3 19
10 37 22 40 27 3 5 9 9 13 8 4 0 29 11 56 26 52 28 62 46 34 62 -9 5 -17 13
-17 18 -1 5 -8 9 -15 9 -7 0 -16 6 -21 13 -6 10 -10 10 -21 -3z m10 -25 c-8
-5 -19 -10 -25 -10 -5 0 -3 5 5 10 8 5 20 10 25 10 6 0 3 -5 -5 -10z m50 -32
c0 -5 -9 -4 -20 2 -11 6 -20 12 -20 14 0 2 9 2 20 -1 11 -3 20 -9 20 -15z
m-63 -14 c-5 -5 -57 13 -57 20 0 3 14 0 31 -6 16 -6 28 -12 26 -14z m27 11
c11 -8 16 -15 10 -15 -5 0 -18 7 -28 15 -11 8 -16 15 -10 15 5 0 18 -7 28 -15z
m-86 -20 c-3 -3 -9 2 -12 12 -6 14 -5 15 5 6 7 -7 10 -15 7 -18z m-38 -49 c0
-6 -7 -1 -15 10 -8 10 -15 23 -15 28 0 6 7 1 15 -10 8 -10 15 -23 15 -28z m76
35 c-4 -5 0 -11 6 -14 7 -2 1 -4 -14 -4 -16 0 -28 4 -28 9 0 5 4 7 9 3 5 -3
12 -1 16 5 3 5 8 10 11 10 3 0 3 -4 0 -9z m44 -1 c0 -5 -2 -10 -4 -10 -3 0 -8
5 -11 10 -3 6 -1 10 4 10 6 0 11 -4 11 -10z m-90 -4 c0 -3 -4 -8 -10 -11 -5
-3 -10 -1 -10 4 0 6 5 11 10 11 6 0 10 -2 10 -4z m-94 -28 c5 -7 3 -8 -6 -3
-10 6 -12 4 -7 -8 3 -10 2 -17 -3 -17 -11 0 -13 23 -3 33 9 9 11 9 19 -5z m37
-23 c-9 -16 -10 -16 -16 -1 -5 12 -3 15 5 10 8 -5 9 -1 4 12 -5 14 -4 16 4 7
8 -7 9 -17 3 -28z m65 13 c-2 -6 -12 -12 -21 -14 -9 -1 -15 2 -11 7 3 5 10 7
15 4 5 -4 9 -1 9 4 0 6 3 11 6 11 3 0 4 -5 2 -12z m-166 -30 c-8 -8 -9 -4 -5
13 4 13 8 18 11 10 2 -7 -1 -18 -6 -23z m-31 -21 c-10 -9 -11 -8 -5 6 3 10 9
15 12 12 3 -3 0 -11 -7 -18z m-30 -19 c-10 -11 -11 -9 -5 5 6 17 5 18 -13 6
-12 -7 -18 -19 -16 -29 3 -10 1 -20 -4 -23 -18 -11 -6 44 13 57 23 18 45 3 25
-16z m72 14 c-10 -10 -20 -17 -22 -16 -6 5 20 34 30 34 5 0 1 -8 -8 -18z m64
-4 c-3 -8 -6 -5 -6 6 -1 11 2 17 5 13 3 -3 4 -12 1 -19z m-24 0 c3 -8 -4 -13
-19 -13 -22 0 -23 1 -7 13 9 6 18 12 19 12 1 0 4 -6 7 -12z m-67 -45 c-3 -4
-6 -1 -6 6 0 7 -4 10 -9 6 -5 -3 -13 0 -17 6 -4 8 -3 9 4 5 7 -4 12 -1 12 6 0
8 5 6 11 -5 6 -10 8 -21 5 -24z m-103 2 c-3 -9 -8 -14 -10 -11 -3 3 -2 9 2 15
9 16 15 13 8 -4z m-19 -20 c3 -8 1 -15 -4 -15 -6 0 -10 7 -10 15 0 8 2 15 4
15 2 0 6 -7 10 -15z m51 -5 c-3 -5 -12 -10 -18 -10 -7 0 -6 4 3 10 19 12 23
12 15 0z m-90 -20 c-3 -5 -12 -10 -18 -10 -7 0 -6 4 3 10 19 12 23 12 15 0z
m27 -7 c-6 -2 -9 -10 -6 -15 4 -7 2 -8 -5 -4 -13 9 -5 26 12 25 9 0 8 -2 -1
-6z m47 4 c-2 -1 -13 -9 -24 -17 -19 -14 -19 -14 -6 3 7 9 18 17 24 17 6 0 8
-1 6 -3z m-59 -46 c0 -4 -7 -16 -16 -27 -15 -18 -15 -18 -5 3 14 28 14 36 -1
27 -7 -4 -8 -3 -4 5 7 11 26 6 26 -8z m43 4 c-3 -9 -8 -14 -10 -11 -3 3 -2 9
2 15 9 16 15 13 8 -4z m-37 -49 c0 -14 -6 -22 -13 -19 -9 4 -9 9 0 24 15 24
15 24 13 -5z m39 5 c-3 -6 -11 -11 -16 -11 -5 0 -4 6 3 14 14 16 24 13 13 -3z
m-5 -51 c8 -5 11 -10 5 -10 -5 0 -17 5 -25 10 -8 5 -10 10 -5 10 6 0 17 -5 25
-10z m-14 -22 c4 -7 3 -8 -4 -4 -15 9 -15 1 -2 -25 6 -10 8 -19 6 -19 -10 0
-27 41 -21 50 8 13 12 13 21 -2z m22 -43 c-3 -3 -9 2 -12 12 -6 14 -5 15 5 6
7 -7 10 -15 7 -18z m-58 -15 c0 -5 -5 -10 -11 -10 -5 0 -7 5 -4 10 3 6 8 10
11 10 2 0 4 -4 4 -10z m35 -8 c-3 -3 -11 0 -18 7 -9 10 -8 11 6 5 10 -3 15 -9
12 -12z m-20 -21 c3 -5 0 -13 -6 -17 -7 -4 -9 -3 -5 4 3 5 0 13 -6 15 -9 4
-10 6 -1 6 6 1 14 -3 18 -8z m21 -33 c4 -7 3 -8 -4 -4 -15 9 -15 1 -2 -25 6
-10 8 -19 6 -19 -10 0 -27 41 -21 50 8 13 12 13 21 -2z m-2 -67 c-5 -6 -34 20
-34 30 0 5 8 1 18 -8 10 -10 17 -20 16 -22z m-44 4 c0 -8 -2 -15 -4 -15 -2 0
-6 7 -10 15 -3 8 -1 15 4 15 6 0 10 -7 10 -15z m22 -51 c-6 -12 -9 -7 -9 16 0
23 3 28 9 16 5 -9 5 -23 0 -32z m43 16 c0 -7 -7 -15 -15 -17 -13 -4 -13 -3 0
6 13 10 13 12 0 22 -13 9 -13 10 0 6 8 -2 15 -10 15 -17z m-65 -35 c0 -8 -4
-15 -10 -15 -5 0 -7 7 -4 15 4 8 8 15 10 15 2 0 4 -7 4 -15z m33 -13 c-10 -10
-20 -17 -22 -16 -6 5 20 34 30 34 5 0 1 -8 -8 -18z m7 -21 c-13 -26 -13 -34 2
-25 7 5 8 3 3 -5 -13 -22 -28 4 -16 28 7 12 14 21 17 21 2 0 0 -9 -6 -19z m30
-45 c0 -2 -7 -7 -16 -10 -8 -3 -12 -2 -9 4 6 10 25 14 25 6z m-59 -53 c-11
-16 -11 -15 -5 6 4 17 3 21 -6 16 -9 -6 -11 -4 -5 4 5 9 11 9 17 3 7 -7 6 -16
-1 -29z m56 22 c0 -8 -4 -15 -9 -15 -10 0 -11 14 -1 23 9 10 10 9 10 -8z"/>
<path d="M1830 3280 c0 -5 5 -10 10 -10 6 0 10 -5 10 -11 0 -5 -4 -7 -10 -4
-14 9 -12 -18 3 -34 6 -8 7 -11 1 -8 -8 4 -11 -28 -12 -108 0 -67 4 -113 9
-109 5 3 9 0 9 -5 0 -6 -4 -11 -9 -11 -5 0 -8 -11 -8 -25 0 -20 2 -23 12 -15
10 8 15 7 21 -2 4 -7 4 -10 -1 -6 -19 18 -34 -22 -33 -90 1 -64 3 -71 28 -86
15 -8 30 -13 34 -9 3 3 6 1 6 -6 0 -7 5 -9 10 -6 6 3 13 -1 16 -9 3 -9 10 -13
15 -10 5 3 9 1 9 -4 0 -12 172 -107 189 -103 7 1 11 -1 8 -6 -3 -5 26 -26 65
-47 39 -21 68 -34 64 -27 -4 6 -3 11 2 11 8 0 33 43 37 65 2 6 -11 19 -27 28
-16 9 -26 12 -23 7 3 -6 1 -10 -4 -10 -6 0 -11 7 -11 16 0 11 -5 14 -17 10
-10 -4 -14 -4 -10 0 11 12 -56 53 -70 42 -7 -6 -14 -5 -19 3 -5 8 -3 9 6 4 9
-5 11 -4 6 4 -11 18 -65 43 -78 35 -7 -5 -8 -3 -4 5 5 8 0 14 -13 18 -12 3
-21 10 -21 15 0 5 -4 6 -10 3 -5 -3 -10 0 -10 7 0 9 -3 9 -10 -2 -8 -13 -10
-13 -10 1 0 9 -11 21 -25 27 -24 11 -29 24 -25 70 1 15 -4 22 -17 23 -15 0
-15 2 -3 7 20 9 25 103 7 114 -7 4 -8 8 -1 8 6 0 11 24 12 55 1 45 -2 55 -16
56 -14 0 -14 2 -2 7 8 4 16 17 18 30 3 17 -2 22 -20 23 -21 1 -21 2 -3 7 13 5
21 18 23 40 3 30 1 32 -27 32 -18 0 -35 -7 -41 -17 -11 -17 -11 -17 -6 0 4 12
0 17 -14 17 -11 0 -20 -4 -20 -10z m74 -16 c3 -8 2 -12 -4 -9 -6 3 -10 10 -10
16 0 14 7 11 14 -7z m24 -9 c-3 -3 -9 2 -12 12 -6 14 -5 15 5 6 7 -7 10 -15 7
-18z m-58 -15 c0 -5 -5 -10 -11 -10 -5 0 -7 5 -4 10 3 6 8 10 11 10 2 0 4 -4
4 -10z m35 -8 c-3 -3 -11 0 -18 7 -9 10 -8 11 6 5 10 -3 15 -9 12 -12z m-20
-21 c3 -5 0 -13 -6 -17 -7 -4 -9 -3 -5 4 3 5 0 13 -6 15 -9 4 -10 6 -1 6 6 1
14 -3 18 -8z m21 -33 c4 -7 3 -8 -4 -4 -15 9 -15 1 -2 -25 6 -10 8 -19 6 -19
-10 0 -27 41 -21 50 8 13 12 13 21 -2z m-2 -67 c-5 -6 -34 20 -34 30 0 5 8 1
18 -8 10 -10 17 -20 16 -22z m-44 4 c0 -8 -2 -15 -4 -15 -2 0 -6 7 -10 15 -3
8 -1 15 4 15 6 0 10 -7 10 -15z m22 -51 c-6 -12 -9 -7 -9 16 0 23 3 28 9 16 5
-9 5 -23 0 -32z m43 16 c0 -7 -7 -15 -15 -17 -13 -4 -13 -3 0 6 13 10 13 12 0
22 -13 9 -13 10 0 6 8 -2 15 -10 15 -17z m-65 -35 c0 -8 -4 -15 -10 -15 -5 0
-7 7 -4 15 4 8 8 15 10 15 2 0 4 -7 4 -15z m33 -13 c-10 -10 -20 -17 -22 -16
-6 5 20 34 30 34 5 0 1 -8 -8 -18z m7 -21 c-13 -26 -13 -34 2 -25 7 5 8 3 3
-5 -13 -22 -28 4 -16 28 7 12 14 21 17 21 2 0 0 -9 -6 -19z m30 -51 c0 -5 -4
-10 -10 -10 -5 0 -10 5 -10 10 0 6 5 10 10 10 6 0 10 -4 10 -10z m-24 -22 c4
-7 3 -8 -4 -4 -15 9 -15 1 -1 -27 9 -20 9 -20 -4 -5 -8 10 -18 14 -22 10 -4
-4 -2 3 4 16 13 25 17 27 27 10z m-2 -67 c-2 -3 -12 3 -22 13 -16 17 -16 18 5
5 12 -7 20 -15 17 -18z m-44 4 c0 -8 -2 -15 -4 -15 -2 0 -6 7 -10 15 -3 8 -1
15 4 15 6 0 10 -7 10 -15z m22 -51 c-6 -12 -9 -7 -9 16 0 23 3 28 9 16 5 -9 5
-23 0 -32z m43 16 c0 -7 -7 -15 -15 -17 -13 -4 -13 -3 0 6 13 10 13 12 0 22
-13 9 -13 10 0 6 8 -2 15 -10 15 -17z m-74 -47 c-12 -20 -14 -14 -5 12 4 9 9
14 11 11 3 -2 0 -13 -6 -23z m66 5 c11 -19 12 -37 3 -43 -5 -3 -7 4 -5 15 2
11 -3 24 -13 30 -9 5 -12 10 -5 10 6 0 15 -6 20 -12z m48 2 c-3 -5 -12 -10
-18 -10 -7 0 -6 4 3 10 19 12 23 12 15 0z m-94 -23 c-10 -9 -11 -8 -5 6 3 10
9 15 12 12 3 -3 0 -11 -7 -18z m141 -14 c-6 -3 -9 -10 -5 -16 4 -7 -2 -5 -13
3 -10 8 -20 15 -22 16 -2 1 10 1 25 1 15 0 22 -2 15 -4z m-36 -19 c18 -15 18
-15 -3 -5 -28 14 -36 14 -27 -1 4 -7 3 -8 -5 -4 -11 7 -6 26 8 26 4 0 16 -7
27 -16z m74 6 c0 -5 -5 -10 -11 -10 -5 0 -7 5 -4 10 3 6 8 10 11 10 2 0 4 -4
4 -10z m-65 -38 c-3 -3 -11 0 -18 7 -9 10 -8 11 6 5 10 -3 15 -9 12 -12z m59
3 c11 -8 16 -15 10 -15 -5 0 -18 7 -28 15 -11 8 -16 15 -10 15 5 0 18 -7 28
-15z m36 0 c19 -22 8 -25 -12 -3 -10 10 -14 18 -9 18 5 0 14 -7 21 -15z m35 5
c3 -6 -1 -7 -9 -4 -18 7 -21 14 -7 14 6 0 13 -4 16 -10z m-90 -20 c4 -6 -1 -7
-11 -3 -12 4 -15 3 -10 -5 5 -8 2 -10 -9 -5 -13 5 -14 7 -3 14 17 11 26 11 33
-1z m85 -15 c0 -8 -4 -15 -10 -15 -5 0 -7 7 -4 15 4 8 8 15 10 15 2 0 4 -7 4
-15z m-46 -10 c-4 -8 -8 -15 -10 -15 -2 0 -4 7 -4 15 0 8 4 15 10 15 5 0 7 -7
4 -15z m116 11 c0 -2 -7 -7 -16 -10 -8 -3 -12 -2 -9 4 6 10 25 14 25 6z m-76
-55 c-5 -6 -34 20 -34 30 0 5 8 1 18 -8 10 -10 17 -20 16 -22z m51 21 c-3 -3
-11 0 -18 7 -9 10 -8 11 6 5 10 -3 15 -9 12 -12z m-30 -2 c3 -6 -1 -7 -9 -4
-18 7 -21 14 -7 14 6 0 13 -4 16 -10z m65 -10 c0 -5 -4 -10 -10 -10 -5 0 -10
5 -10 10 0 6 5 10 10 10 6 0 10 -4 10 -10z m35 -8 c-3 -3 -11 0 -18 7 -9 10
-8 11 6 5 10 -3 15 -9 12 -12z m-15 -16 c0 -3 -4 -8 -10 -11 -5 -3 -10 -1 -10
4 0 6 5 11 10 11 6 0 10 -2 10 -4z m47 -2 c-3 -3 -12 -4 -19 -1 -8 3 -5 6 6 6
11 1 17 -2 13 -5z m-47 -34 c0 -5 -2 -10 -4 -10 -3 0 -8 5 -11 10 -3 6 -1 10
4 10 6 0 11 -4 11 -10z m56 -2 c4 -7 4 -10 -1 -6 -4 4 -14 0 -22 -10 -13 -15
-13 -15 -3 6 12 25 16 27 26 10z"/>
<path d="M2387 2563 c-12 -12 -7 -22 8 -17 8 4 15 1 15 -4 0 -6 -9 -9 -19 -7
-26 5 -59 -42 -40 -59 6 -6 9 -6 6 -1 -3 6 3 12 14 12 10 1 19 -3 19 -8 0 -6
-5 -7 -11 -3 -7 4 -10 1 -7 -7 3 -8 10 -13 16 -12 6 2 23 -8 38 -22 15 -14 31
-25 35 -25 5 0 55 -28 111 -62 57 -34 111 -61 120 -60 10 0 21 -4 24 -10 5 -7
2 -8 -7 -4 -8 4 -5 0 6 -8 11 -9 25 -14 32 -12 7 3 12 0 10 -7 -1 -7 4 -11 11
-9 6 1 12 -3 12 -9 0 -5 5 -7 10 -4 6 3 10 1 10 -4 0 -6 5 -11 11 -11 5 0 7 5
3 12 -4 7 -3 8 4 4 7 -4 12 -14 12 -22 0 -8 4 -13 9 -10 5 4 11 1 13 -6 5 -15
51 -3 74 19 9 10 23 18 30 19 7 1 27 12 43 23 16 12 34 21 40 21 5 0 14 6 18
14 4 8 11 15 15 16 22 2 38 14 38 25 0 8 4 17 10 20 6 4 7 -1 3 -11 -5 -14 -3
-15 18 -4 13 7 26 16 29 19 3 3 31 19 62 35 31 16 54 34 51 38 -3 5 3 8 13 6
12 -2 18 2 16 11 -2 8 3 11 13 8 9 -4 15 -1 15 6 0 20 -27 53 -36 44 -4 -4 -2
-7 5 -7 7 0 9 -4 6 -10 -3 -5 -10 -10 -15 -10 -9 0 -8 26 2 36 4 3 4 12 1 20
-8 22 -103 -34 -100 -59 1 -11 -5 -22 -13 -24 -12 -4 -13 -3 -1 5 8 6 10 15 6
22 -6 10 -11 9 -22 -5 -7 -11 -13 -16 -13 -12 0 7 -79 -34 -122 -64 -14 -11
-31 -19 -37 -19 -6 0 -11 -4 -11 -9 0 -5 -11 -12 -25 -15 -14 -4 -25 -11 -25
-17 0 -6 4 -7 10 -4 6 4 7 -1 3 -11 -5 -15 -7 -15 -15 0 -7 13 -12 13 -28 4
-10 -7 -17 -15 -14 -19 8 -13 -41 4 -80 28 -21 14 -35 20 -32 14 4 -6 2 -11
-3 -11 -6 0 -11 6 -11 14 0 19 -25 27 -39 13 -6 -6 -11 -7 -11 -1 0 5 -5 2
-11 -6 -9 -13 -10 -13 -6 0 2 8 10 14 17 12 6 -1 10 2 8 8 -2 7 -6 10 -9 8 -3
-2 -13 5 -23 15 -10 9 -23 17 -31 17 -7 0 -15 4 -17 8 -5 13 -95 62 -102 55
-3 -3 -6 -1 -6 5 0 6 -13 18 -30 27 -16 9 -30 12 -30 8 0 -4 -7 2 -15 13 -8
10 -15 15 -15 11 0 -4 -10 1 -22 13 -23 21 -31 24 -41 13z m43 -38 c0 -8 -4
-15 -10 -15 -5 0 -7 7 -4 15 4 8 8 15 10 15 2 0 4 -7 4 -15z m56 -33 c-10 -2
-22 0 -28 6 -6 6 0 7 19 4 21 -5 23 -7 9 -10z m-41 -1 c3 -5 0 -13 -6 -17 -7
-4 -9 -3 -5 4 3 5 0 13 -6 15 -9 4 -10 6 -1 6 6 1 14 -3 18 -8z m798 -4 c3 -8
-1 -14 -8 -14 -7 0 -11 6 -8 14 3 7 6 13 8 13 2 0 5 -6 8 -13z m-713 -7 c0 -5
-2 -10 -4 -10 -3 0 -8 5 -11 10 -3 6 -1 10 4 10 6 0 11 -4 11 -10z m-64 -22
c5 -7 3 -8 -6 -3 -9 5 -10 1 -6 -16 6 -20 5 -21 -4 -6 -6 9 -8 22 -5 27 8 13
12 13 21 -2z m54 -7 c0 -4 -7 -16 -16 -27 -15 -18 -15 -18 -5 3 14 28 14 36
-1 27 -7 -4 -8 -3 -4 5 7 11 26 6 26 -8z m743 4 c-3 -9 -8 -14 -10 -11 -3 3
-2 9 2 15 9 16 15 13 8 -4z m-693 -30 c0 -5 -5 -3 -10 5 -5 8 -10 20 -10 25 0
6 5 3 10 -5 5 -8 10 -19 10 -25z m660 20 c0 -8 -4 -15 -10 -15 -5 0 -7 7 -4
15 4 8 8 15 10 15 2 0 4 -7 4 -15z m70 11 c0 -2 -7 -7 -16 -10 -8 -3 -12 -2
-9 4 6 10 25 14 25 6z m-678 -30 c7 4 8 2 4 -5 -9 -13 -26 -5 -25 12 0 9 2 8
6 -1 2 -6 10 -9 15 -6z m548 4 c0 -5 -5 -10 -11 -10 -5 0 -7 5 -4 10 3 6 8 10
11 10 2 0 4 -4 4 -10z m-649 -23 c-10 -9 -11 -8 -5 6 3 10 9 15 12 12 3 -3 0
-11 -7 -18z m749 13 c0 -5 -2 -10 -4 -10 -3 0 -8 5 -11 10 -3 6 -1 10 4 10 6
0 11 -4 11 -10z m-25 -10 c3 -6 -1 -7 -9 -4 -18 7 -21 14 -7 14 6 0 13 -4 16
-10z m-677 -17 c-13 -16 -22 -17 -12 -1 5 8 2 9 -10 5 -9 -4 -15 -3 -11 2 3 6
14 9 25 8 14 -1 16 -4 8 -14z m37 -4 c-4 -5 -12 -9 -18 -8 -9 0 -8 2 1 6 6 2
9 10 6 15 -4 7 -2 8 5 4 6 -4 9 -12 6 -17z m505 17 c0 -2 -7 -7 -16 -10 -8 -3
-12 -2 -9 4 6 10 25 14 25 6z m40 0 c0 -2 -7 -7 -16 -10 -8 -3 -12 -2 -9 4 6
10 25 14 25 6z m30 -6 c-35 -24 -54 -31 -30 -11 14 11 30 21 35 21 6 0 3 -5
-5 -10z m45 -8 c-3 -3 -11 0 -18 7 -9 10 -8 11 6 5 10 -3 15 -9 12 -12z m-577
-11 c11 -7 10 -9 -3 -14 -11 -5 -14 -3 -9 5 5 8 2 9 -10 5 -10 -4 -15 -3 -11
3 7 12 16 12 33 1z m33 -14 c-10 -9 -11 -8 -5 6 3 10 9 15 12 12 3 -3 0 -11
-7 -18z m384 13 c-8 -13 1 -13 26 0 10 6 19 8 19 6 0 -10 -41 -27 -50 -21 -10
6 -5 25 6 25 3 0 2 -4 -1 -10z m129 2 c3 -5 -1 -9 -9 -9 -8 0 -12 4 -9 9 3 4
7 8 9 8 2 0 6 -4 9 -8z m-594 -22 c8 -5 11 -10 5 -10 -5 0 -17 5 -25 10 -8 5
-10 10 -5 10 6 0 17 -5 25 -10z m446 -15 c1 -8 -2 -15 -6 -15 -5 0 -8 9 -7 20
1 21 10 18 13 -5z m69 15 c-3 -5 -12 -10 -18 -10 -7 0 -6 4 3 10 19 12 23 12
15 0z m38 -5 c-3 -9 -8 -14 -10 -11 -3 3 -2 9 2 15 9 16 15 13 8 -4z m-496
-11 c-8 -8 -48 -13 -43 -6 2 4 14 8 26 9 12 1 20 0 17 -3z m33 -4 c0 -5 -2
-10 -4 -10 -3 0 -8 5 -11 10 -3 6 -1 10 4 10 6 0 11 -4 11 -10z m336 -28 c-4
-3 -14 2 -24 12 -16 18 -16 18 6 6 13 -6 21 -14 18 -18z m-251 5 c15 -12 16
-15 4 -22 -8 -5 -10 -4 -6 0 4 5 -3 15 -15 22 -13 7 -18 12 -12 13 5 0 18 -6
29 -13z m305 5 c0 -5 -7 -9 -15 -9 -8 0 -12 4 -9 9 3 4 9 8 15 8 5 0 9 -4 9
-8z m-255 -22 c-3 -5 -1 -10 6 -10 7 0 10 -3 6 -6 -9 -9 -28 6 -22 17 4 5 8 9
11 9 3 0 2 -4 -1 -10z m105 0 c0 -5 -5 -10 -11 -10 -5 0 -7 5 -4 10 3 6 8 10
11 10 2 0 4 -4 4 -10z m75 0 c3 -5 1 -10 -4 -10 -6 0 -11 5 -11 10 0 6 2 10 4
10 3 0 8 -4 11 -10z m-27 -11 c-2 -6 -7 -10 -12 -9 -5 1 -13 -4 -18 -12 -8
-10 -9 -10 -5 2 2 8 10 14 16 13 6 -2 11 2 11 7 0 6 3 10 6 10 3 0 4 -5 2 -11z
m67 1 c3 -6 -1 -7 -9 -4 -18 7 -21 14 -7 14 6 0 13 -4 16 -10z m-281 -11 c3
-3 -4 -5 -14 -6 -11 -1 -20 2 -20 7 0 8 25 8 34 -1z m42 -1 c4 -7 4 -10 -1 -6
-4 4 -14 0 -22 -10 -13 -15 -13 -15 -3 6 12 25 16 27 26 10z m64 2 c0 -5 -4
-10 -10 -10 -5 0 -10 5 -10 10 0 6 5 10 10 10 6 0 10 -4 10 -10z m13 -30 c-10
-11 -19 -20 -21 -20 -1 0 2 9 8 20 6 11 15 20 20 20 6 0 2 -9 -7 -20z m47 10
c0 -5 -2 -10 -4 -10 -3 0 -8 5 -11 10 -3 6 -1 10 4 10 6 0 11 -4 11 -10z m-86
-26 c9 -24 2 -26 -12 -4 -7 11 -8 20 -3 20 5 0 12 -7 15 -16z m76 6 c8 -5 11
-10 5 -10 -5 0 -17 5 -25 10 -8 5 -10 10 -5 10 6 0 17 -5 25 -10z"/>
</g>
</svg>
